<svg width="27" height="32" viewBox="0 0 27 32" fill="none" xmlns="http://www.w3.org/2000/svg">
<path d="M25.7508 13.0337C26.1998 12.9896 26.5291 12.5983 26.5291 12.5983C26.5291 12.5983 26.1302 12.2783 25.6803 12.3224C25.6257 12.3276 25.5717 12.3381 25.5191 12.3538C25.5974 12.2261 25.6391 12.0793 25.6396 11.9295C25.5521 11.9367 25.4662 11.9573 25.385 11.9906C25.5242 10.7522 25.0845 9.49524 24.0711 8.42582C24.1112 8.43323 24.1518 8.43805 24.1925 8.44025C24.661 8.46062 25.0565 8.10584 25.0565 8.10584C25.0565 8.10584 24.717 7.74682 24.2731 7.70268C24.3747 7.64585 24.47 7.57843 24.5575 7.50153C25.1609 6.96427 25.2246 6.05016 25.2246 6.05016C25.2246 6.05016 24.3096 6.00772 23.7062 6.54498C23.633 6.61063 23.5657 6.68248 23.505 6.75972C23.4836 6.49182 23.389 6.23494 23.2317 6.01706C23.1798 6.06148 23.1313 6.10971 23.0866 6.16135C22.4763 4.17018 20.6388 2.80793 18.1944 2.58641C18.2442 2.51161 18.2857 2.43164 18.3183 2.34791C18.3183 2.34791 17.9279 2.2189 17.585 2.36403C17.6372 2.28204 17.6804 2.19469 17.714 2.10347C17.9423 1.47115 17.6291 0.778564 17.6291 0.778564C17.6291 0.778564 16.9433 1.10958 16.715 1.74105C16.6876 1.81807 16.6669 1.89729 16.653 1.97785C16.5315 1.79031 16.3606 1.63994 16.1591 1.54329C16.1223 1.63976 16.0975 1.74038 16.0852 1.8429C15.0144 1.17752 13.7658 0.85533 12.5067 0.919498C11.2476 0.983665 10.0382 1.43113 9.04057 2.20192C9.03915 2.01574 8.99715 1.8321 8.9175 1.66381C8.9175 1.66381 8.55593 1.86242 8.42947 2.21126C8.40481 2.11739 8.37039 2.02636 8.32677 1.93966C8.01952 1.34553 7.29808 1.10024 7.29808 1.10024C7.29808 1.10024 7.07232 1.82762 7.38296 2.42514C7.42012 2.49775 7.46387 2.56679 7.51367 2.63139C7.29366 2.59298 7.06734 2.61558 6.85928 2.69674C6.88604 2.75237 6.91726 2.80573 6.95264 2.85631C4.78408 3.24249 3.19861 4.54363 2.65202 6.34723C2.58123 6.28959 2.50538 6.23845 2.4254 6.19445C2.4254 6.19445 2.21236 6.64004 2.33119 7.07036C2.24167 6.99584 2.14435 6.93125 2.04092 6.8777C1.32287 6.50764 0.44696 6.77754 0.44696 6.77754C0.44696 6.77754 0.736385 7.64666 1.45528 8.01587C1.54286 8.06083 1.63433 8.09775 1.72858 8.12621C1.48638 8.24237 1.28083 8.42296 1.13445 8.64819C1.33025 8.75303 1.54669 8.81358 1.76847 8.82558C-0.117459 10.9738 0.190638 13.7416 2.65541 15.6411C2.65541 15.8108 2.65541 15.9712 2.67239 16.1325C2.46647 16.1137 2.25889 16.1368 2.06213 16.2004C2.06213 16.2004 2.23952 16.6613 2.63504 16.8684C2.51941 16.8835 2.40564 16.9105 2.29554 16.949C1.53167 17.2189 1.13105 18.0405 1.13105 18.0405C1.13105 18.0405 1.96198 18.425 2.72331 18.1551C2.81602 18.1223 2.90552 18.0811 2.99067 18.032C2.96149 18.1115 2.94155 18.1941 2.93126 18.2781C2.93079 18.2875 2.93079 18.2968 2.93126 18.3061C2.91451 18.4792 2.92656 18.6539 2.9669 18.823C3.16143 18.7573 3.3409 18.6534 3.49483 18.5175H3.50926C3.52284 18.537 3.53727 18.5557 3.55169 18.5743C3.50168 18.6197 3.45515 18.6688 3.4125 18.7212C2.99322 19.2466 3.06875 20.0036 3.06875 20.0036C3.06875 20.0036 3.8182 19.9094 4.24258 19.3832L4.25955 19.3594C4.37244 19.4596 4.48278 19.5411 4.60584 19.6319C4.65932 19.676 4.69072 19.7049 4.72382 19.7261C5.80853 20.49 7.25395 20.8923 8.90647 20.8083C11.4578 23.0744 15.1159 23.0006 17.5442 20.6343C19.0584 20.6504 20.379 20.2642 21.3916 19.5827C21.4562 19.7175 21.5566 19.832 21.6819 19.9137C21.7628 19.7659 21.7944 19.596 21.7718 19.429C21.8185 19.4747 21.87 19.5151 21.9255 19.5496C22.3091 19.7864 22.8082 19.6735 22.8082 19.6735C22.8082 19.6735 22.6843 19.1778 22.2989 18.941C22.2714 18.9243 22.2431 18.909 22.214 18.8952C22.2497 18.8578 22.2845 18.8205 22.3184 18.7831C22.3899 18.7326 22.4534 18.6717 22.5069 18.6024L22.4848 18.5888C23.213 17.6857 23.5941 16.5255 23.5092 15.2184C24.2731 14.5759 24.7993 13.8527 25.104 13.0965C25.143 13.1897 25.2038 13.2721 25.2814 13.3367C25.4275 13.4371 25.6038 13.4842 25.7805 13.4699C25.7555 13.3035 25.6779 13.1494 25.559 13.0303C25.6226 13.038 25.6869 13.0391 25.7508 13.0337Z" fill="#047857"/>
<path fill-rule="evenodd" clip-rule="evenodd" d="M17.7721 0.713906L17.6291 0.778582L17.5609 0.63722L17.7058 0.567261L17.7721 0.713906ZM17.8672 2.14113C17.9885 1.79252 17.963 1.43609 17.9112 1.17353C17.8846 1.039 17.8505 0.925625 17.8229 0.845512C17.809 0.805375 17.7967 0.773366 17.7877 0.750977C17.7832 0.739776 17.7795 0.730965 17.7769 0.724729L17.7736 0.717322L17.7727 0.715107L17.7723 0.714379L17.7721 0.713906C17.7721 0.713857 17.7721 0.713906 17.6291 0.778582C17.5609 0.63722 17.5609 0.637197 17.5609 0.63722L17.5604 0.637446L17.5597 0.637796L17.5575 0.638867L17.5503 0.642493C17.5442 0.645569 17.5357 0.649965 17.5251 0.655674C17.5038 0.667088 17.4738 0.683788 17.4373 0.705731C17.3647 0.749529 17.2657 0.814694 17.159 0.900958C16.9557 1.06534 16.7142 1.31455 16.5824 1.64788C16.4782 1.54802 16.3583 1.46479 16.2269 1.40178L16.0732 1.32803L16.0124 1.48736C15.9989 1.52277 15.9868 1.55869 15.9762 1.59501C14.9223 0.990519 13.7152 0.700751 12.4987 0.762751C11.2996 0.823862 10.1445 1.22401 9.1664 1.91394C9.14328 1.8047 9.10744 1.6982 9.05939 1.59668L8.98734 1.44445L8.84055 1.52702C8.81366 1.54199 8.72144 1.59738 8.61734 1.68879C8.56683 1.73315 8.5113 1.78792 8.45844 1.85277C8.28589 1.52844 8.00739 1.30474 7.77991 1.16375C7.66329 1.09147 7.557 1.03903 7.47951 1.00449C7.44068 0.987191 7.40887 0.974292 7.38635 0.965574C7.37508 0.961212 7.36611 0.957889 7.35974 0.955578L7.35214 0.952866L7.34986 0.95207L7.3491 0.951812L7.34871 0.951679C7.34867 0.951662 7.34862 0.951646 7.29809 1.10026L7.34871 0.951679L7.19597 0.899746L7.14818 1.05373L7.29809 1.10026C7.14818 1.05373 7.14819 1.05368 7.14818 1.05373L7.14802 1.05423L7.14779 1.05499L7.14709 1.05732L7.1448 1.0651C7.14292 1.07163 7.14034 1.08086 7.13724 1.09256C7.13106 1.11595 7.12282 1.14931 7.11406 1.19093C7.09658 1.27401 7.07684 1.39093 7.06744 1.52789C7.04954 1.78866 7.06824 2.13499 7.22414 2.45851C7.0802 2.4668 6.93778 2.49765 6.80224 2.55053L6.64437 2.61211L6.70777 2.74389C4.68267 3.1682 3.16935 4.39468 2.56906 6.09646C2.54672 6.08276 2.52405 6.06958 2.50107 6.05694L2.42195 6.19281C2.28379 6.12676 2.28377 6.12681 2.28375 6.12685L2.2836 6.12717L2.28332 6.12775L2.28255 6.1294L2.28015 6.13462C2.27818 6.13895 2.2755 6.14495 2.27225 6.15252C2.26576 6.16764 2.25695 6.18907 2.24693 6.21589C2.22695 6.26939 2.20187 6.34509 2.18085 6.43551C2.1598 6.52604 2.14209 6.63442 2.13875 6.75187C2.13024 6.74729 2.12168 6.74277 2.11309 6.73832C1.71846 6.53494 1.28721 6.51005 0.963915 6.53227C0.800941 6.54347 0.661746 6.56685 0.562912 6.58753C0.513412 6.59788 0.473805 6.6076 0.446139 6.61486C0.4323 6.6185 0.42143 6.62152 0.413783 6.62371L0.404756 6.62634L0.402111 6.62713L0.400964 6.62748C0.400912 6.6275 0.400743 6.62755 0.446954 6.77752L0.400964 6.62748L0.247314 6.67483L0.298039 6.82715L0.446954 6.77752C0.298027 6.82711 0.298022 6.8271 0.298039 6.82715L0.298213 6.82767L0.298495 6.82851L0.299388 6.83112L0.302495 6.83999C0.305158 6.84749 0.309016 6.85808 0.314102 6.87145C0.324272 6.89818 0.339384 6.93604 0.359733 6.98231C0.400362 7.07471 0.462246 7.20151 0.547882 7.34058C0.717558 7.61612 0.987848 7.9518 1.38212 8.15477C1.23374 8.26734 1.10522 8.40514 1.00284 8.56267L0.909733 8.70594L1.06036 8.78659C1.18925 8.8556 1.32624 8.90722 1.46775 8.94045C0.63028 9.99169 0.279228 11.1797 0.424672 12.346C0.577624 13.5726 1.27712 14.7558 2.49851 15.7178C2.49869 15.8015 2.49953 15.8853 2.50325 15.9695C2.33733 15.9724 2.17241 15.9998 2.01387 16.051L2.06214 16.2004L1.90986 16.2385L1.95059 16.4014L1.97931 16.3921C2.00259 16.436 2.03256 16.488 2.06955 16.5436C2.12107 16.6211 2.18795 16.7084 2.27146 16.7914C2.26221 16.7945 2.25298 16.7976 2.24377 16.8008L2.24325 16.801C1.82357 16.9493 1.51036 17.246 1.30536 17.4966C1.20204 17.6229 1.12398 17.7402 1.07154 17.8262C1.04528 17.8694 1.02532 17.9048 1.01173 17.9299C1.00493 17.9425 0.999708 17.9525 0.996082 17.9596L0.991834 17.9679L0.990604 17.9704L0.990213 17.9712L0.990074 17.9715C0.99005 17.9715 0.989971 17.9717 1.13106 18.0405L0.990074 17.9715L0.919765 18.1157L1.06514 18.183L1.13106 18.0405C1.06514 18.183 1.06509 18.1829 1.06514 18.183L1.06564 18.1832L1.06644 18.1835L1.06896 18.1847L1.07754 18.1885C1.08482 18.1917 1.09518 18.1961 1.10839 18.2016C1.13481 18.2125 1.17272 18.2274 1.22035 18.2443C1.31544 18.278 1.45013 18.3198 1.61003 18.3527C1.92674 18.418 2.35609 18.4512 2.77385 18.3037C2.75722 18.4899 2.77084 18.6776 2.81423 18.8595L2.85416 19.0269L3.01719 18.9717C3.04299 18.963 3.06855 18.9537 3.09386 18.9438C2.99831 19.1513 2.95094 19.3629 2.92777 19.539C2.90989 19.675 2.90598 19.7934 2.90654 19.8782C2.90683 19.9207 2.90824 19.955 2.90962 19.9791C2.91032 19.9912 2.911 20.0007 2.91154 20.0075L2.91222 20.0155L2.91244 20.0179L2.91252 20.0187L2.91256 20.0191C2.91256 20.0192 2.91257 20.0192 3.06876 20.0037L2.91256 20.0191L2.92856 20.1795L3.08834 20.1594L3.06876 20.0037C3.08834 20.1594 3.08828 20.1594 3.08834 20.1594L3.08885 20.1593L3.08965 20.1592L3.09204 20.1589L3.10001 20.1578C3.1067 20.1568 3.1161 20.1554 3.12795 20.1534C3.15164 20.1493 3.1852 20.1431 3.22648 20.134C3.30888 20.1157 3.42294 20.0856 3.5512 20.0379C3.77556 19.9545 4.05312 19.8139 4.27801 19.5801C4.35411 19.6412 4.4303 19.6974 4.50916 19.7556C4.51819 19.7631 4.52728 19.7708 4.53639 19.7785C4.56963 19.8065 4.60324 19.8348 4.63592 19.8562C5.73892 20.632 7.19591 21.0401 8.85043 20.9681C11.4441 23.2306 15.1347 23.1572 17.6072 20.7917C19.0549 20.7964 20.3334 20.4386 21.341 19.803C21.4104 19.8981 21.4967 19.9804 21.5962 20.0452L21.7381 20.1377L21.8196 19.9891C21.8652 19.9057 21.8978 19.8165 21.9166 19.7245C22.1226 19.8294 22.3422 19.856 22.5094 19.8573C22.6044 19.8581 22.6861 19.8507 22.7445 19.8431C22.7738 19.8393 22.7974 19.8354 22.8141 19.8323C22.8225 19.8308 22.8292 19.8295 22.834 19.8285L22.8399 19.8272L22.8417 19.8268L22.8423 19.8267L22.8427 19.8266C22.8428 19.8266 22.8428 19.8266 22.8082 19.6735L22.8427 19.8266L22.9994 19.7912L22.9605 19.6354L22.8082 19.6735C22.9605 19.6354 22.9605 19.6355 22.9605 19.6354L22.9603 19.635L22.9597 19.6325L22.9582 19.6267C22.9569 19.622 22.955 19.6154 22.9526 19.6073C22.9478 19.5909 22.9407 19.5681 22.9309 19.5403C22.9114 19.4848 22.8811 19.4086 22.8376 19.3241C22.7632 19.1798 22.6452 19.0022 22.4676 18.8667C22.5283 18.817 22.5832 18.7605 22.6312 18.6982L22.7377 18.5601L22.7161 18.5468C23.3843 17.6525 23.7343 16.534 23.6705 15.2873C24.3335 14.7168 24.8194 14.083 25.1353 13.4162C25.15 13.4305 25.1652 13.4442 25.181 13.4573L25.1866 13.462L25.1925 13.4661C25.3683 13.5869 25.5804 13.6436 25.7931 13.6264L25.9607 13.6129L25.9357 13.4466C25.9216 13.3527 25.8935 13.2621 25.8529 13.1776C26.079 13.1359 26.2688 13.0248 26.4022 12.9252C26.4783 12.8684 26.539 12.8132 26.5809 12.7719C26.6019 12.7512 26.6183 12.7338 26.6298 12.7212C26.6356 12.715 26.6401 12.7099 26.6433 12.7062L26.6472 12.7017L26.6485 12.7002L26.6489 12.6997L26.6491 12.6995C26.6492 12.6994 26.6492 12.6994 26.5291 12.5983L26.6491 12.6995L26.7527 12.5764L26.6273 12.4759L26.5291 12.5983C26.6273 12.4759 26.6274 12.4759 26.6273 12.4759L26.627 12.4756L26.6264 12.4751L26.625 12.474L26.6202 12.4703C26.6163 12.4673 26.6109 12.4632 26.604 12.4582C26.5903 12.4481 26.5708 12.4342 26.5462 12.418C26.4971 12.3856 26.4268 12.3431 26.3411 12.3022C26.1941 12.232 25.992 12.1616 25.7679 12.1613C25.7866 12.086 25.7963 12.0083 25.7966 11.93L25.7972 11.7589L25.6267 11.7731C25.6044 11.7749 25.5823 11.7775 25.5603 11.7808C25.6241 10.6678 25.2392 9.55565 24.4208 8.58181C24.5988 8.5516 24.7558 8.48394 24.8755 8.4184C24.9618 8.37118 25.032 8.32333 25.0809 8.28703C25.1055 8.26884 25.1248 8.25341 25.1384 8.24222C25.1452 8.23663 25.1506 8.23208 25.1544 8.22877L25.159 8.22475L25.1605 8.22347L25.161 8.22302L25.1613 8.22277C25.1613 8.22274 25.1613 8.2227 25.0565 8.10586L25.1613 8.22277L25.2813 8.1151L25.1706 7.99801L25.0565 8.10586C25.1706 7.99801 25.1706 7.99804 25.1706 7.99801L25.1703 7.99768L25.1698 7.99722L25.1686 7.99591L25.1646 7.99179C25.1612 7.9884 25.1566 7.98374 25.1507 7.97799C25.1389 7.9665 25.1221 7.95057 25.1006 7.93159C25.0579 7.89371 24.9963 7.84309 24.9194 7.79095C24.8426 7.7388 24.7479 7.68333 24.6397 7.63796C24.6469 7.63183 24.654 7.62564 24.6611 7.6194L24.6618 7.61878C24.9934 7.32355 25.1716 6.93034 25.2673 6.62072C25.3155 6.46465 25.3438 6.32638 25.3601 6.22675C25.3683 6.17685 25.3735 6.13641 25.3767 6.10799C25.3782 6.09378 25.3793 6.08255 25.3801 6.07463L25.3808 6.06526L25.3811 6.06251L25.3811 6.06163L25.3811 6.06131C25.3812 6.06126 25.3812 6.06108 25.2246 6.05018L25.3811 6.06131L25.3923 5.90082L25.2318 5.89338L25.2246 6.05018C25.2318 5.89338 25.2319 5.89338 25.2318 5.89338L25.2304 5.89332L25.2277 5.89321L25.2183 5.89292C25.2103 5.89271 25.199 5.8925 25.1847 5.89244C25.1562 5.89232 25.1154 5.8928 25.0649 5.89514C24.9641 5.89982 24.8235 5.91195 24.663 5.9418C24.3449 6.00093 23.9344 6.13221 23.6031 6.42662C23.5514 6.24743 23.4691 6.07767 23.359 5.92518L23.2592 5.78699L23.1562 5.87509C22.477 4.00761 20.7263 2.73354 18.4439 2.4551C18.4511 2.43849 18.458 2.42173 18.4646 2.40484L18.5273 2.24365L18.3608 2.19682C18.3668 2.19852 18.1422 2.12283 17.8672 2.14113ZM18.0885 2.46044C17.9648 2.44523 17.7981 2.4443 17.6461 2.5086L17.1817 2.70521L17.4526 2.27974C17.4986 2.20737 17.5368 2.13028 17.5665 2.04977C17.667 1.77113 17.6501 1.47206 17.6032 1.2343C17.586 1.14731 17.5652 1.07035 17.5458 1.00805C17.4909 1.04348 17.4254 1.08925 17.3563 1.14509C17.1678 1.29753 16.9633 1.51614 16.8627 1.79407C16.8384 1.86252 16.82 1.93292 16.8077 2.00449L16.7396 2.40012L16.5213 2.06324C16.45 1.95314 16.3591 1.85775 16.2536 1.78149C16.2485 1.80799 16.2443 1.83468 16.2411 1.86153L16.2118 2.1064L16.0024 1.97624C14.9587 1.32775 13.7418 1.01374 12.5147 1.07628C11.2876 1.13882 10.1089 1.57492 9.13655 2.32615L8.88603 2.5197L8.88361 2.20314C8.88285 2.10355 8.86886 2.0048 8.84222 1.90942C8.83639 1.91434 8.83047 1.91943 8.82449 1.92469C8.72862 2.00887 8.62776 2.12488 8.57705 2.26477L8.40554 2.73784L8.27766 2.25117C8.25586 2.16818 8.22546 2.0877 8.18696 2.01102C8.05152 1.74962 7.82093 1.55852 7.61452 1.43059C7.53891 1.38372 7.46816 1.34634 7.40917 1.3179C7.39772 1.38212 7.3867 1.46103 7.38064 1.54939C7.36404 1.79116 7.38548 2.08971 7.52224 2.35275L7.5227 2.35365C7.55547 2.4177 7.59407 2.47859 7.63799 2.53557L7.88463 2.85552L7.48667 2.78603C7.35741 2.76346 7.22564 2.76506 7.09793 2.79017L7.22216 2.96777L6.98017 3.01086C4.85898 3.38861 3.32875 4.65546 2.80224 6.39277L2.73438 6.61671L2.55292 6.46897C2.53752 6.45643 2.52185 6.44423 2.50592 6.43238C2.4993 6.45541 2.49276 6.48025 2.48663 6.5066C2.45133 6.65843 2.43276 6.84845 2.4825 7.0286L2.61587 7.51159L2.23077 7.19102C2.15 7.12378 2.06218 7.06549 1.96886 7.01716C1.64548 6.85056 1.27956 6.82525 0.98544 6.84546C0.857709 6.85424 0.746181 6.87142 0.661436 6.8879C0.69728 6.96638 0.748113 7.06702 0.815198 7.17597C0.969744 7.42694 1.20315 7.70993 1.52696 7.87624C1.60611 7.91687 1.68878 7.95024 1.77395 7.97596L2.16113 8.09285L1.79646 8.26776C1.63616 8.34464 1.49385 8.45313 1.37771 8.58604C1.50554 8.63344 1.64011 8.66146 1.77695 8.66886L2.09963 8.68631L1.88643 8.92916C0.969229 9.97391 0.593044 11.1592 0.736193 12.3072C0.879469 13.4561 1.54563 14.5876 2.75123 15.5167L2.81239 15.5639V15.6411C2.81239 15.8123 2.81253 15.9644 2.8285 16.1161L2.84851 16.3062L2.65814 16.2888C2.53504 16.2776 2.41129 16.283 2.29018 16.3048C2.3024 16.3254 2.316 16.3473 2.331 16.3698C2.41712 16.4994 2.54253 16.6427 2.70786 16.7293L3.14759 16.9596L2.65543 17.024C2.55058 17.0377 2.44742 17.0622 2.34759 17.0971C2.00351 17.2187 1.73457 17.4677 1.54834 17.6954C1.4675 17.7942 1.4039 17.8869 1.35808 17.9598C1.43979 17.9875 1.54797 18.0194 1.67335 18.0453C1.96195 18.1047 2.3279 18.1287 2.67087 18.0071C2.75449 17.9776 2.83541 17.9404 2.91221 17.8961L3.28727 17.6796L3.13803 18.0861C3.11375 18.1522 3.09694 18.2208 3.08789 18.2907C3.08786 18.2932 3.08791 18.2958 3.08803 18.2983L3.08861 18.3098L3.0875 18.3213C3.07842 18.4152 3.07875 18.5096 3.08839 18.6031C3.1975 18.5491 3.29926 18.4808 3.39094 18.3998L3.43546 18.3605H3.59128L3.63812 18.4279C3.64908 18.4436 3.66109 18.4592 3.67591 18.4784L3.76459 18.5931L3.65718 18.6906C3.61319 18.7305 3.57225 18.7737 3.53471 18.8197C3.3503 19.0511 3.27062 19.3397 3.23903 19.5799C3.22747 19.6678 3.22259 19.7473 3.22103 19.8126C3.28373 19.7966 3.35947 19.7743 3.44186 19.7436C3.66733 19.6599 3.93021 19.5187 4.11761 19.2881L4.23323 19.1263L4.36373 19.242C4.47054 19.3368 4.57532 19.4143 4.69905 19.5056L4.70248 19.5081L4.70577 19.5108C4.72612 19.5276 4.74171 19.5408 4.75424 19.5513C4.78043 19.5734 4.79331 19.5842 4.80854 19.594L4.81141 19.5958L4.8142 19.5978C5.86612 20.3386 7.27565 20.734 8.8985 20.6515L8.96267 20.6482L9.01071 20.6909C11.5012 22.903 15.0659 22.8302 17.4347 20.5219L17.4811 20.4766L17.5459 20.4773C19.0327 20.4932 20.3212 20.1139 21.304 19.4525L21.4547 19.351L21.5332 19.5149C21.5549 19.5603 21.5817 19.6028 21.6128 19.6417C21.6236 19.5788 21.6249 19.5141 21.6163 19.45L21.5554 18.998L21.8816 19.3168C21.9201 19.3545 21.9626 19.3878 22.0084 19.4163C22.166 19.5134 22.354 19.5421 22.5119 19.5434C22.5409 19.5436 22.5683 19.5429 22.5938 19.5416C22.5835 19.5184 22.5718 19.4936 22.5585 19.468C22.4862 19.3276 22.3755 19.1724 22.217 19.0749C22.1942 19.0611 22.1707 19.0484 22.1466 19.0369L21.9507 18.9438L22.1005 18.7868C22.1353 18.7504 22.1692 18.7139 22.2023 18.6776L22.2138 18.6649L22.2278 18.655C22.2378 18.6479 22.2476 18.6406 22.2572 18.6331L22.2507 18.6291L22.3626 18.4903C23.0653 17.6189 23.435 16.4977 23.3526 15.2286L23.3475 15.1494L23.4082 15.0983C24.1547 14.4704 24.6644 13.7677 24.9585 13.0379L25.1014 12.6831L25.1603 12.8239L25.5779 12.8745C25.6305 12.8809 25.6836 12.8818 25.7364 12.8774C25.9208 12.859 26.0879 12.7681 26.2144 12.6737C26.2376 12.6564 26.259 12.6393 26.2785 12.6229C26.2562 12.6106 26.2319 12.5979 26.2058 12.5855C26.063 12.5173 25.8809 12.4605 25.6957 12.4787L25.695 12.4787C25.6507 12.4829 25.6068 12.4914 25.5641 12.5042L25.1705 12.6221L25.3853 12.2718C25.412 12.2283 25.4334 12.182 25.4493 12.1339C25.4477 12.1345 25.4461 12.1352 25.4445 12.1359L25.1994 12.2362L25.229 11.9731C25.3624 10.7864 24.9429 9.57403 23.9572 8.5338L23.6255 8.18382L24.0997 8.27148C24.1329 8.27762 24.1664 8.28163 24.2001 8.28348C24.3941 8.2917 24.5804 8.22202 24.7249 8.143C24.7541 8.12701 24.7811 8.11091 24.8055 8.09544C24.7864 8.08097 24.7655 8.06591 24.7431 8.0507C24.6141 7.96311 24.4434 7.87737 24.2576 7.8589L23.7606 7.80948L24.1965 7.5657C24.2882 7.51439 24.3743 7.45354 24.4533 7.38414C24.725 7.14212 24.8803 6.80974 24.9673 6.52806C25.0051 6.40578 25.0292 6.29559 25.0444 6.21062C24.9583 6.21584 24.8461 6.22706 24.7204 6.25044C24.4306 6.30431 24.0825 6.42015 23.8107 6.6621C23.7444 6.72162 23.6834 6.78675 23.6284 6.85676L23.3805 7.17201L23.3485 6.77224C23.3344 6.59516 23.2845 6.42346 23.2025 6.26729L23.0196 6.47849L22.9365 6.20736C22.3484 4.28852 20.5738 2.95967 18.1802 2.74275L17.9176 2.71895L18.0637 2.49944C18.0722 2.48661 18.0805 2.47361 18.0885 2.46044ZM25.1811 12.8738L25.2489 13.036C25.2772 13.1037 25.3209 13.1638 25.3764 13.2115C25.4332 13.2495 25.4954 13.2775 25.5606 13.2948C25.5312 13.2386 25.4933 13.1867 25.4479 13.1412L25.1811 12.8738ZM25.6653 12.1662C25.6655 12.1662 25.6656 12.1662 25.6657 12.1662L25.6804 12.3225L25.665 12.1662C25.6651 12.1662 25.6652 12.1662 25.6653 12.1662Z" fill="#047857"/>
<path opacity="0.1" d="M25.7508 13.0337C26.1998 12.9896 26.5291 12.5983 26.5291 12.5983C26.5291 12.5983 26.1302 12.2783 25.6803 12.3224C25.6257 12.3276 25.5717 12.3381 25.5191 12.3538C25.5974 12.2261 25.6391 12.0793 25.6396 11.9295C25.5521 11.9367 25.4662 11.9573 25.385 11.9906C25.5242 10.7522 25.0845 9.49524 24.0711 8.42582C24.1112 8.43323 24.1518 8.43805 24.1925 8.44025C24.661 8.46062 25.0565 8.10584 25.0565 8.10584C25.0565 8.10584 24.717 7.74682 24.2731 7.70268C24.3747 7.64585 24.47 7.57843 24.5575 7.50153C25.1609 6.96427 25.2246 6.05016 25.2246 6.05016C25.2246 6.05016 24.3096 6.00772 23.7062 6.54498C23.633 6.61063 23.5657 6.68248 23.505 6.75972C23.4836 6.49182 23.3891 6.23494 23.2317 6.01706C23.1798 6.06148 23.1313 6.10971 23.0866 6.16135C22.4763 4.17018 20.6388 2.80793 18.1944 2.58641C18.2442 2.51161 18.2857 2.43164 18.3183 2.34791C18.3183 2.34791 17.9279 2.2189 17.585 2.36403C17.6372 2.28204 17.6804 2.19469 17.714 2.10347C17.9423 1.47115 17.6291 0.778564 17.6291 0.778564C17.6291 0.778564 16.9433 1.10958 16.715 1.74105C16.6876 1.81807 16.6669 1.89729 16.653 1.97785C16.5315 1.79031 16.3606 1.63994 16.1591 1.54329C16.1223 1.63976 16.0975 1.74038 16.0852 1.8429C15.0144 1.17752 13.7658 0.85533 12.5067 0.919498C11.2476 0.983665 10.0382 1.43113 9.04057 2.20192C9.03915 2.01574 8.99715 1.8321 8.9175 1.66381C8.9175 1.66381 8.55593 1.86242 8.42947 2.21126C8.40481 2.11739 8.37039 2.02636 8.32677 1.93966C8.01952 1.34553 7.29808 1.10024 7.29808 1.10024C7.29808 1.10024 7.07232 1.82762 7.38296 2.42514C7.42012 2.49775 7.46387 2.56679 7.51367 2.63139C7.29366 2.59298 7.06734 2.61558 6.85928 2.69674C6.88604 2.75237 6.91726 2.80573 6.95264 2.85631C4.78408 3.24249 3.19861 4.54363 2.65202 6.34723C2.58123 6.28959 2.50538 6.23845 2.4254 6.19445C2.4254 6.19445 2.21236 6.64004 2.33119 7.07036C2.24167 6.99584 2.14435 6.93125 2.04092 6.87769C1.32287 6.50764 0.44696 6.77754 0.44696 6.77754C0.44696 6.77754 0.736385 7.64666 1.45528 8.01587C1.54286 8.06083 1.63433 8.09775 1.72858 8.12621C1.48638 8.24237 1.28083 8.42296 1.13445 8.64819C1.33025 8.75303 1.54669 8.81358 1.76847 8.82558C-0.11746 10.9738 0.190638 13.7415 2.65541 15.6411C2.65541 15.8108 2.65541 15.9712 2.67239 16.1325C2.46647 16.1137 2.25889 16.1368 2.06213 16.2004C2.06213 16.2004 2.23952 16.6613 2.63504 16.8684C2.51941 16.8835 2.40564 16.9105 2.29554 16.949C1.53167 17.2189 1.13105 18.0405 1.13105 18.0405C1.13105 18.0405 1.96198 18.425 2.72331 18.1551C2.81602 18.1223 2.90552 18.0811 2.99067 18.032C2.96874 18.0906 2.95226 18.1511 2.94144 18.2128C2.93028 18.2744 2.92376 18.3369 2.92192 18.3995C2.91859 18.456 2.91859 18.5127 2.92192 18.5693C2.92192 18.6151 2.93041 18.6609 2.93805 18.7059C2.94229 18.7356 2.94823 18.7653 2.95502 18.7908C2.95502 18.8001 2.95502 18.8086 2.96096 18.8179C3.15549 18.7522 3.33496 18.6483 3.48889 18.5124H3.50331C3.5169 18.5319 3.53132 18.5506 3.54575 18.5693C3.49574 18.6146 3.44921 18.6637 3.40656 18.7161C2.98727 19.2415 3.06281 19.9985 3.06281 19.9985C3.06281 19.9985 3.8182 19.9094 4.24258 19.3832L4.25955 19.3594C4.37244 19.4596 4.4675 19.5292 4.58972 19.6209C4.65847 19.6709 4.69157 19.7057 4.72382 19.7261C5.80853 20.49 7.25395 20.8923 8.90647 20.8083C11.4578 23.0744 15.1159 23.0006 17.5442 20.6343C19.0584 20.6504 20.379 20.2642 21.3916 19.5827C21.4562 19.7175 21.5566 19.832 21.6819 19.9137C21.7628 19.7659 21.7944 19.596 21.7718 19.429C21.8185 19.4747 21.87 19.5151 21.9255 19.5496C22.3091 19.7864 22.8082 19.6735 22.8082 19.6735C22.8082 19.6735 22.6843 19.1778 22.2989 18.941C22.2714 18.9243 22.2431 18.909 22.214 18.8952C22.2497 18.8578 22.2845 18.8205 22.3184 18.7831C22.3899 18.7326 22.4534 18.6717 22.5069 18.6024L22.4848 18.5888C23.213 17.6857 23.5941 16.5255 23.5092 15.2184C24.2731 14.5759 24.7993 13.8527 25.104 13.0965C25.143 13.1897 25.2038 13.2721 25.2814 13.3367C25.4275 13.4371 25.6038 13.4842 25.7805 13.4699C25.7555 13.3035 25.6779 13.1494 25.559 13.0303C25.6226 13.038 25.6869 13.0391 25.7508 13.0337Z" fill="#047857"/>
<path d="M19.3759 30.5792C18.0382 30.3653 16.1922 29.4283 16.1922 27.6934C16.1922 25.9586 15.9248 15.9586 16.1922 15.2897C16.4595 14.6209 17.0486 14.8654 17.6351 15.0759C17.9112 15.1831 18.1481 15.372 18.3141 15.6174C18.3328 15.6454 18.3575 15.6689 18.3864 15.6862C18.4153 15.7035 18.4477 15.7142 18.4813 15.7174C18.5148 15.7207 18.5487 15.7164 18.5804 15.705C18.6121 15.6936 18.6409 15.6752 18.6646 15.6513C18.6873 15.6262 18.7039 15.5963 18.7132 15.5637C18.7224 15.5312 18.724 15.497 18.7178 15.4637C18.7117 15.4304 18.6979 15.399 18.6777 15.372C18.6574 15.3449 18.6311 15.3228 18.6009 15.3076C18.3599 15.1887 18.0323 14.9867 17.9831 14.755C17.8982 14.3807 18.0094 14.407 18.1698 14.3001C18.3422 14.1629 18.5063 14.0155 18.6612 13.8588C18.6858 13.838 18.7057 13.8122 18.7195 13.7832C18.7334 13.7541 18.741 13.7225 18.7417 13.6903C18.7424 13.6582 18.7364 13.6262 18.7238 13.5966C18.7113 13.5669 18.6926 13.5403 18.669 13.5184C18.6455 13.4965 18.6175 13.4798 18.587 13.4696C18.5565 13.4593 18.5242 13.4556 18.4922 13.4587C18.4601 13.4618 18.4291 13.4717 18.4012 13.4877C18.3733 13.5037 18.3491 13.5255 18.3302 13.5515C18.1375 13.8112 17.703 14.284 17.1538 14.1668C16.4044 14.0064 15.896 13.3911 16.1353 12.1298C16.3051 11.2582 16.9968 10.3093 17.4084 9.80936C17.4393 9.77703 17.4619 9.73769 17.4742 9.69472C17.4864 9.65175 17.4881 9.60644 17.479 9.56269C17.4699 9.51893 17.4503 9.47804 17.4219 9.44354C17.3935 9.40903 17.3571 9.38195 17.3159 9.36461C17.2501 9.33475 17.1753 9.3315 17.1071 9.35554C17.0389 9.37959 16.9827 9.42906 16.9501 9.49362C16.7082 9.97486 16.0555 11.1614 15.5217 11.1402C15.0523 11.1215 14.5032 10.8134 14.2188 10.631C14.2 10.6182 14.1788 10.6096 14.1565 10.6056C14.1341 10.6016 14.1112 10.6022 14.0891 10.6076C14.0671 10.613 14.0464 10.6229 14.0284 10.6367C14.0104 10.6505 13.9955 10.6679 13.9846 10.6878C13.9657 10.7247 13.962 10.7675 13.9744 10.807C13.9868 10.8466 14.0142 10.8797 14.0508 10.8992C14.6101 11.1928 15.2059 11.8005 15.2806 12.0764C15.3613 12.3709 15.2008 12.8521 14.6661 13.8418C14.1314 14.8314 12.6291 15.3398 11.8839 14.2432C11.2898 13.3707 11.1319 11.4491 11.2177 10.5826C11.2222 10.5437 11.219 10.5043 11.2082 10.4667C11.1973 10.4291 11.179 10.3941 11.1545 10.3636C11.1299 10.3332 11.0994 10.308 11.065 10.2894C11.0305 10.2709 10.9926 10.2595 10.9537 10.2558C10.9142 10.2532 10.8746 10.2588 10.8374 10.2723C10.8001 10.2858 10.7661 10.3068 10.7374 10.3341C10.7087 10.3613 10.686 10.3943 10.6706 10.4307C10.6552 10.4672 10.6476 10.5065 10.6481 10.5461C10.6583 11.1971 10.9622 12.5831 10.7067 13.3071C10.3859 14.2169 9.34276 14.671 8.70025 14.1898C8.24872 13.8503 8.34038 12.9811 8.43459 12.4923C8.44395 12.4613 8.44493 12.4283 8.43742 12.3968C8.42991 12.3653 8.41419 12.3363 8.39185 12.3129C8.36951 12.2894 8.34136 12.2723 8.31025 12.2633C8.27914 12.2542 8.2462 12.2536 8.21477 12.2614C8.17154 12.2694 8.13248 12.2922 8.1044 12.3261C8.07632 12.3599 8.06101 12.4025 8.06114 12.4464C8.06114 12.7664 8.02465 13.5727 7.6843 13.7849C7.40421 13.9598 7.136 13.7467 6.98408 13.5778C6.95424 13.5439 6.91261 13.5227 6.86767 13.5184C6.82272 13.5142 6.77785 13.5272 6.74218 13.5549C6.72281 13.5704 6.70697 13.5899 6.69572 13.6121C6.68448 13.6342 6.67808 13.6585 6.67695 13.6833C6.67583 13.7082 6.68001 13.7329 6.6892 13.756C6.6984 13.7791 6.71241 13.7999 6.7303 13.8172C6.84149 13.9233 7.02482 14.0964 7.24719 14.3043C7.32697 14.4172 7.43476 14.6141 7.36347 14.7754C7.29217 14.9367 6.92212 15.0181 6.70229 15.0496C6.68234 15.0525 6.66326 15.0597 6.64631 15.0706C6.62937 15.0816 6.61495 15.096 6.60402 15.113C6.5931 15.1299 6.58592 15.149 6.58296 15.1689C6.58 15.1889 6.58133 15.2092 6.58686 15.2286V15.2354C6.59294 15.256 6.60357 15.275 6.61797 15.291C6.63237 15.3069 6.65016 15.3194 6.67004 15.3276C6.68992 15.3357 6.71138 15.3393 6.73283 15.338C6.75427 15.3368 6.77516 15.3307 6.79396 15.3203C7.09017 15.165 7.787 15.1506 7.94147 15.1556C8.72572 15.2057 9.49299 15.7014 9.90972 16.3575C10.3265 17.0136 10.3052 17.9149 10.3519 18.6678C10.4589 20.406 10.4911 28.4098 10.0362 29.0786C9.58126 29.7474 7.91431 30.6437 7.91431 30.6437" fill="#047857"/>
<path fill-rule="evenodd" clip-rule="evenodd" d="M17.3631 9.25667C17.4212 9.28142 17.4726 9.31983 17.5128 9.36864C17.5533 9.41787 17.5813 9.47621 17.5943 9.53864C17.6072 9.60107 17.6049 9.66572 17.5873 9.72703C17.5702 9.78682 17.5392 9.84169 17.4968 9.88715C17.2936 10.1342 17.0228 10.4902 16.7821 10.8908C16.5397 11.2941 16.3321 11.7356 16.2509 12.152C16.1346 12.7654 16.2036 13.2032 16.3758 13.5024C16.5467 13.7993 16.8293 13.9769 17.1784 14.0516M17.3631 9.25667C17.2699 9.21487 17.1642 9.21048 17.0679 9.24445C16.9711 9.2786 16.8912 9.34887 16.845 9.44056C16.725 9.67919 16.5048 10.0894 16.2505 10.4356C16.1231 10.609 15.9905 10.7617 15.8611 10.8687C15.7289 10.978 15.6164 11.0261 15.5263 11.0225C15.313 11.014 15.0741 10.9388 14.8484 10.8392C14.6248 10.7405 14.4224 10.6216 14.2834 10.5325C14.2514 10.5111 14.2152 10.4965 14.1773 10.4896C14.1388 10.4827 14.0993 10.4839 14.0614 10.4931C14.0234 10.5023 13.9877 10.5194 13.9567 10.5432C13.9257 10.567 13.9 10.597 13.8813 10.6313L13.8798 10.634C13.8468 10.6984 13.8404 10.7731 13.8621 10.8422C13.8837 10.9112 13.9316 10.9689 13.9954 11.003L13.996 11.0033C14.2632 11.1436 14.5429 11.3612 14.7651 11.5786C14.876 11.6869 14.9707 11.7934 15.0413 11.8878C15.1141 11.985 15.1543 12.0602 15.167 12.1071L15.1671 12.1074C15.1979 12.2202 15.1872 12.3865 15.0928 12.6599C14.9992 12.9314 14.8292 13.2923 14.5625 13.7857C14.3118 14.2499 13.8316 14.603 13.3295 14.7096C12.8335 14.8149 12.3231 14.68 11.9813 14.177C11.6999 13.7638 11.5148 13.0874 11.4123 12.3934C11.3104 11.7034 11.2931 11.0168 11.3347 10.5951C11.3409 10.541 11.3363 10.4863 11.3213 10.434C11.306 10.3813 11.2805 10.3322 11.246 10.2896C11.2116 10.2469 11.1689 10.2116 11.1206 10.1857C11.0723 10.1597 11.0194 10.1437 10.9648 10.1385L10.9614 10.1383C10.9056 10.1346 10.8498 10.1425 10.7973 10.1615C10.7448 10.1805 10.6968 10.2102 10.6563 10.2487C10.6158 10.2871 10.5837 10.3335 10.5621 10.385C10.5404 10.4364 10.5296 10.4918 10.5304 10.5476C10.5331 10.7169 10.5547 10.9312 10.5805 11.1633C10.586 11.2129 10.5918 11.2635 10.5976 11.3148C10.6192 11.5055 10.642 11.7066 10.6598 11.9094C10.7052 12.4297 10.7138 12.933 10.5957 13.2678C10.4464 13.6912 10.129 14.0078 9.77683 14.1622C9.42428 14.3167 9.05006 14.3046 8.77085 14.0955C8.58734 13.9574 8.50129 13.7 8.48021 13.389C8.45961 13.0851 8.50323 12.7595 8.54919 12.5196C8.56277 12.4706 8.56373 12.419 8.55193 12.3694C8.5396 12.3177 8.51377 12.2701 8.47709 12.2316C8.44041 12.1931 8.39418 12.165 8.3431 12.1501C8.29319 12.1356 8.24041 12.1343 8.18987 12.1462C8.12094 12.1598 8.05874 12.1967 8.01381 12.2508C7.96811 12.3058 7.9432 12.3752 7.94341 12.4467L8.06113 12.4464H7.94341C7.94341 12.6033 7.93435 12.8763 7.88474 13.1337C7.85993 13.2625 7.82577 13.383 7.77998 13.4816C7.73369 13.5813 7.68009 13.6487 7.622 13.6849C7.52126 13.7478 7.4261 13.7426 7.33297 13.7022C7.23459 13.6595 7.14313 13.5785 7.07195 13.4994C7.02235 13.4434 6.9533 13.4082 6.87876 13.4012C6.80399 13.3941 6.72933 13.4158 6.66999 13.4618L6.66849 13.463C6.63607 13.489 6.60957 13.5217 6.59075 13.5587C6.57193 13.5958 6.56122 13.6364 6.55934 13.6779C6.55746 13.7195 6.56444 13.7609 6.57984 13.7995C6.59523 13.8381 6.61867 13.873 6.6486 13.9019L6.64902 13.9023C6.75906 14.0073 6.93924 14.1775 7.15773 14.3818C7.19236 14.4321 7.22883 14.4949 7.25036 14.5591C7.27357 14.6283 7.27483 14.6847 7.25579 14.7277C7.25123 14.738 7.23638 14.7578 7.19754 14.7826C7.16009 14.8066 7.10975 14.8293 7.05019 14.8498C6.93124 14.8908 6.79197 14.9177 6.68563 14.9329L6.68494 14.933C6.64843 14.9385 6.6135 14.9516 6.58247 14.9717C6.55146 14.9917 6.52506 15.0181 6.50506 15.0491C6.48506 15.0801 6.47191 15.1151 6.46649 15.1516C6.46193 15.1824 6.46294 15.2137 6.46945 15.244C6.47006 15.2524 6.47157 15.2606 6.47394 15.2687C6.48501 15.3062 6.50436 15.3407 6.53058 15.3698C6.55679 15.3988 6.58919 15.4216 6.62539 15.4364C6.66158 15.4513 6.70064 15.4578 6.7397 15.4555C6.77821 15.4532 6.81573 15.4425 6.84957 15.424C6.97528 15.3585 7.20171 15.3173 7.43223 15.2949C7.6561 15.2732 7.86229 15.2709 7.9358 15.2732C8.67824 15.3213 9.41208 15.7935 9.81034 16.4205C10.0055 16.7278 10.1012 17.0977 10.1529 17.4916C10.1898 17.7732 10.2034 18.0582 10.2167 18.3375C10.2221 18.4511 10.2275 18.5638 10.2344 18.6749C10.2876 19.5394 10.3225 21.9713 10.287 24.2723C10.2693 25.4224 10.2341 26.5376 10.175 27.4061C10.1455 27.8406 10.1101 28.2114 10.0683 28.4932C10.0474 28.6342 10.0252 28.7508 10.0019 28.841C9.97771 28.9347 9.95516 28.9883 9.93884 29.0123C9.83498 29.165 9.65632 29.3377 9.43869 29.5137C9.22274 29.6883 8.97538 29.8605 8.7405 30.0131C8.50586 30.1656 8.2851 30.2974 8.12293 30.3912C8.04189 30.4381 7.97559 30.4753 7.92964 30.5009C7.90667 30.5136 7.88879 30.5234 7.87671 30.53L7.86301 30.5375L7.85877 30.5398C7.80151 30.5706 7.77982 30.6421 7.81061 30.6994C7.8414 30.7566 7.91278 30.7781 7.97005 30.7473L7.9143 30.6436C7.97005 30.7473 7.97002 30.7473 7.97005 30.7473L7.97043 30.7471L7.97517 30.7445L7.98955 30.7367C8.00211 30.7298 8.02048 30.7197 8.04398 30.7067C8.09097 30.6806 8.15845 30.6426 8.2408 30.595C8.4054 30.4998 8.62981 30.3658 8.86877 30.2106C9.1075 30.0555 9.36217 29.8783 9.58673 29.6968C9.8096 29.5165 10.0099 29.3264 10.1335 29.1447C10.1741 29.0851 10.2046 28.9978 10.2299 28.8999C10.256 28.7986 10.2797 28.673 10.3012 28.5277C10.3443 28.237 10.3802 27.8591 10.4099 27.4221C10.4694 26.5475 10.5047 25.4277 10.5225 24.276C10.5579 21.9733 10.5232 19.5342 10.4694 18.6605C10.463 18.5563 10.4578 18.4477 10.4524 18.3364C10.4389 18.0535 10.4246 17.7528 10.3863 17.461C10.3327 17.0519 10.2307 16.6431 10.0091 16.2943C9.5742 15.6096 8.77438 15.0908 7.94896 15.0381L7.94534 15.0379C7.86278 15.0352 7.64485 15.0377 7.40948 15.0606C7.1795 15.0829 6.90998 15.1265 6.73927 15.216L6.73689 15.2173C6.73352 15.2191 6.72977 15.2202 6.72593 15.2204C6.72209 15.2207 6.71824 15.22 6.71467 15.2186C6.71111 15.2171 6.70792 15.2149 6.70534 15.212C6.70445 15.211 6.70364 15.21 6.70291 15.2088C6.70219 15.2046 6.70124 15.2004 6.70006 15.1963C6.69912 15.193 6.69889 15.1895 6.69939 15.1862C6.6999 15.1828 6.70111 15.1795 6.70296 15.1767C6.70481 15.1738 6.70726 15.1714 6.71013 15.1695C6.713 15.1676 6.71623 15.1664 6.71961 15.1659L6.70228 15.0495L6.71893 15.166C6.83242 15.1498 6.98809 15.1203 7.12695 15.0724C7.19629 15.0485 7.26557 15.0186 7.32443 14.981C7.38189 14.9442 7.44004 14.8933 7.47113 14.8229C7.52338 14.7047 7.50639 14.582 7.47358 14.4842C7.44049 14.3856 7.38656 14.2975 7.34332 14.2363C7.3387 14.2298 7.33343 14.2238 7.32759 14.2183C7.10557 14.0107 6.92266 13.8379 6.81182 13.7322C6.80605 13.7266 6.80153 13.7198 6.79855 13.7123C6.79554 13.7048 6.79418 13.6967 6.79455 13.6886C6.79491 13.6805 6.797 13.6726 6.80068 13.6653C6.80421 13.6584 6.80912 13.6522 6.81512 13.6472C6.82699 13.6383 6.84176 13.6342 6.85655 13.6356C6.87167 13.637 6.88567 13.6441 6.89571 13.6555L6.89654 13.6565C6.97724 13.7462 7.0957 13.8559 7.23926 13.9182C7.38823 13.9828 7.56728 13.9967 7.74663 13.8847C7.85868 13.8148 7.93725 13.7019 7.99353 13.5808C8.05031 13.4585 8.08908 13.3176 8.11594 13.1783C8.16966 12.8995 8.17886 12.6094 8.17886 12.4464L8.17886 12.446C8.17881 12.4296 8.18451 12.4138 8.19496 12.4012C8.20542 12.3886 8.21997 12.3801 8.23606 12.3771C8.23846 12.3767 8.24085 12.3762 8.24321 12.3756C8.25446 12.3728 8.26625 12.373 8.27738 12.3762C8.28851 12.3795 8.29859 12.3856 8.30658 12.394C8.31458 12.4024 8.3202 12.4127 8.32289 12.424C8.32558 12.4353 8.32523 12.4471 8.32188 12.4582C8.32071 12.462 8.31975 12.466 8.31898 12.4699C8.27109 12.7184 8.22255 13.0694 8.2453 13.4049C8.26771 13.7355 8.36156 14.0823 8.62949 14.2838C8.99279 14.5559 9.46153 14.5575 9.87136 14.3778C10.2816 14.198 10.6462 13.8327 10.8177 13.3462C10.955 12.957 10.9394 12.4053 10.8943 11.8889C10.8763 11.6827 10.853 11.4777 10.8314 11.2866C10.8256 11.2358 10.8199 11.1859 10.8145 11.1372C10.7885 10.9037 10.7683 10.7006 10.7658 10.5443C10.7655 10.521 10.77 10.4978 10.7791 10.4764C10.7881 10.4548 10.8016 10.4354 10.8185 10.4194C10.8354 10.4033 10.8555 10.3909 10.8774 10.3829C10.8988 10.3752 10.9216 10.3718 10.9443 10.3731C10.967 10.3755 10.9891 10.3823 11.0092 10.3931C11.0299 10.4042 11.0481 10.4193 11.0629 10.4375C11.0776 10.4558 11.0885 10.4768 11.095 10.4993C11.1015 10.5218 11.1035 10.5454 11.1007 10.5687L11.1005 10.5709C11.0565 11.0159 11.0753 11.7228 11.1794 12.4278C11.2829 13.1293 11.4738 13.8501 11.7865 14.3093C12.19 14.903 12.8033 15.0621 13.3784 14.9399C13.9474 14.8191 14.4858 14.4231 14.7697 13.8977C15.0378 13.4015 15.2153 13.0269 15.3154 12.7367C15.4148 12.4487 15.4439 12.2272 15.3942 12.0455M17.2673 9.47175C17.2291 9.45444 17.1857 9.45256 17.1462 9.4665C17.1067 9.48042 17.0742 9.50906 17.0553 9.54642M17.331 9.51829C17.3147 9.49851 17.2939 9.48299 17.2703 9.47305L17.2673 9.47175M17.331 9.51829C17.3473 9.53807 17.3585 9.56151 17.3637 9.58659L17.331 9.51829ZM17.3637 9.58659C17.369 9.61167 17.368 9.63765 17.361 9.66228L17.3637 9.58659ZM17.361 9.66228C17.3539 9.68691 17.341 9.70946 17.3233 9.72799L17.361 9.66228ZM17.3233 9.72799C17.3213 9.73007 17.3194 9.73223 17.3176 9.73445L17.3233 9.72799ZM17.3176 9.73445C17.1094 9.98724 16.8298 10.3543 16.5803 10.7695L17.3176 9.73445ZM16.5803 10.7695C16.3315 11.1834 16.1084 11.6521 16.0198 12.1073L16.5803 10.7695ZM14.0887 10.7428C14.0844 10.7519 14.0837 10.7622 14.0867 10.7718C14.0898 10.7817 14.0967 10.79 14.1058 10.795C14.3979 10.9485 14.6957 11.1814 14.9297 11.4102C15.0471 11.525 15.1503 11.6405 15.2298 11.7468C15.3072 11.8502 15.3695 11.9543 15.3942 12.0452M16.0198 12.1073L16.0196 12.1078L16.0198 12.1073ZM16.0196 12.1078C15.8967 12.7555 15.9622 13.2559 16.1717 13.6198L16.0196 12.1078ZM16.1717 13.6198C16.3825 13.9859 16.7288 14.1962 17.1292 14.2819L16.1717 13.6198ZM18.4807 13.3415C18.5293 13.3367 18.5784 13.3423 18.6246 13.3579C18.6709 13.3735 18.7133 13.3988 18.7491 13.432C18.7849 13.4652 18.8133 13.5057 18.8323 13.5507C18.8513 13.5956 18.8605 13.6442 18.8594 13.693C18.8583 13.7418 18.8468 13.7898 18.8257 13.8339C18.8055 13.8762 18.7769 13.9139 18.7416 13.9448C18.5844 14.1037 18.4179 14.253 18.243 14.3922C18.2405 14.3942 18.2378 14.3962 18.2351 14.398C18.2031 14.4193 18.1686 14.4384 18.1435 14.4523C18.1343 14.4574 18.1263 14.4618 18.1202 14.4653C18.0918 14.4818 18.0844 14.4897 18.0811 14.4944C18.0763 14.5014 18.0549 14.5396 18.0979 14.7289L18.0982 14.7305C18.114 14.8049 18.1807 14.8915 18.2935 14.9815C18.4023 15.0684 18.5361 15.1443 18.653 15.2019L18.6541 15.2025C18.7004 15.2259 18.7407 15.2597 18.7719 15.3013C18.803 15.3429 18.8241 15.3911 18.8336 15.4422C18.843 15.4933 18.8406 15.5458 18.8264 15.5958C18.8122 15.6458 18.7867 15.6918 18.7518 15.7303C18.7506 15.7316 18.7494 15.7329 18.7481 15.7342C18.7121 15.7705 18.6684 15.7983 18.6203 15.8157C18.5722 15.833 18.5208 15.8395 18.4699 15.8345C18.419 15.8296 18.3698 15.8134 18.326 15.7872C18.2822 15.7609 18.2447 15.7253 18.2163 15.6829C18.0641 15.4579 17.8469 15.2847 17.5938 15.1861C17.5726 15.1785 17.5516 15.1709 17.5307 15.1633C17.2541 15.0636 17.0051 14.9739 16.7922 14.9707C16.6823 14.9691 16.5904 14.9911 16.5131 15.0425C16.4358 15.094 16.3618 15.1824 16.3015 15.3334C16.2914 15.3587 16.2779 15.4221 16.2651 15.5336C16.2527 15.6406 16.242 15.7805 16.233 15.9498C16.2148 16.2882 16.2034 16.7386 16.1971 17.2673C16.1846 18.3245 16.1929 19.6903 16.2096 21.0903C16.2264 22.4986 16.2517 23.9424 16.2727 25.1397C16.2934 26.3209 16.3099 27.2623 16.3099 27.6933C16.3099 28.5135 16.7447 29.15 17.3536 29.6129C17.9642 30.0769 18.741 30.3584 19.3944 30.4628C19.4586 30.4731 19.5024 30.5335 19.4921 30.5977C19.4818 30.6619 19.4215 30.7056 19.3573 30.6953C18.673 30.5859 17.8581 30.292 17.2112 29.8003C16.5627 29.3074 16.0744 28.6081 16.0744 27.6933C16.0744 27.2633 16.058 26.3258 16.0374 25.1478C16.0164 23.951 15.9911 22.5061 15.9742 21.0932C15.9575 19.6927 15.9491 18.3247 15.9617 17.2646C15.9679 16.7346 15.9795 16.2805 15.9979 15.9372C16.0071 15.7657 16.018 15.6205 16.0312 15.5067C16.0438 15.3974 16.0596 15.3043 16.0829 15.246C16.1562 15.0626 16.2561 14.9307 16.3827 14.8465C16.5095 14.7622 16.6516 14.7331 16.7957 14.7353C17.0504 14.7391 17.337 14.8428 17.6013 14.9385C17.626 14.9474 17.6505 14.9563 17.6748 14.965L17.6777 14.966C17.9762 15.0819 18.2322 15.2861 18.4116 15.5513L18.4119 15.5519C18.421 15.5654 18.4329 15.5768 18.4469 15.5851C18.4608 15.5935 18.4764 15.5986 18.4926 15.6002C18.5088 15.6017 18.5251 15.5997 18.5404 15.5942C18.5549 15.589 18.568 15.5808 18.5791 15.5702C18.5888 15.559 18.5959 15.5458 18.5999 15.5315C18.6042 15.5164 18.6049 15.5005 18.6021 15.4851C18.5992 15.4696 18.5928 15.455 18.5834 15.4424C18.5741 15.43 18.562 15.4198 18.5482 15.4128C18.4242 15.3516 18.2739 15.2672 18.1466 15.1656C18.0233 15.0671 17.9018 14.9372 17.8681 14.7803C17.8263 14.5957 17.8182 14.4601 17.8877 14.3601C17.9217 14.3112 17.9668 14.2822 18.0018 14.2618C18.016 14.2536 18.0283 14.2468 18.04 14.2403C18.0603 14.2291 18.0786 14.2191 18.1005 14.2047C18.2678 14.0714 18.4271 13.9282 18.5774 13.776C18.5792 13.7741 18.5811 13.7724 18.583 13.7707C18.5837 13.7701 18.5844 13.7694 18.5852 13.7688C18.597 13.7588 18.6066 13.7463 18.6133 13.7323C18.62 13.7183 18.6236 13.7031 18.624 13.6875C18.6244 13.672 18.6214 13.6566 18.6154 13.6423C18.6093 13.628 18.6003 13.6151 18.5889 13.6046C18.5776 13.594 18.5641 13.586 18.5494 13.581C18.5347 13.5761 18.5191 13.5743 18.5036 13.5758C18.4882 13.5773 18.4732 13.5821 18.4597 13.5898C18.4463 13.5975 18.4346 13.608 18.4255 13.6206L18.4247 13.6216C18.3246 13.7566 18.1585 13.9514 17.9416 14.098C17.7237 14.2451 17.4452 14.3493 17.1292 14.2819M18.4807 13.3415C18.4321 13.3462 18.3851 13.3612 18.3427 13.3855L18.4807 13.3415ZM18.3427 13.3855C18.3005 13.4097 18.2639 13.4425 18.2353 13.4817L18.3427 13.3855ZM18.2353 13.4817C18.1428 13.6064 17.9954 13.7775 17.8098 13.9029C17.6249 14.0277 17.4115 14.1014 17.1784 14.0516" fill="#047857"/>
<path d="M19.3759 30.5792C18.0382 30.3653 16.1922 29.4283 16.1922 27.6934C16.1922 25.9586 15.9248 15.9586 16.1922 15.2897C16.4595 14.6209 17.0486 14.8654 17.6351 15.0759C17.9112 15.1831 18.1481 15.372 18.3141 15.6174C18.3328 15.6454 18.3575 15.6689 18.3864 15.6862C18.4153 15.7035 18.4477 15.7142 18.4813 15.7174C18.5148 15.7207 18.5487 15.7164 18.5804 15.705C18.6121 15.6936 18.6409 15.6752 18.6646 15.6513C18.6873 15.6262 18.7039 15.5963 18.7132 15.5637C18.7224 15.5312 18.724 15.497 18.7178 15.4637C18.7117 15.4304 18.6979 15.399 18.6777 15.372C18.6574 15.3449 18.6311 15.3228 18.6009 15.3076C18.3599 15.1887 18.0323 14.9867 17.9831 14.755C17.8982 14.3807 18.0094 14.407 18.1698 14.3001C18.3422 14.1629 18.5063 14.0155 18.6612 13.8588C18.6858 13.838 18.7057 13.8122 18.7195 13.7832C18.7334 13.7541 18.741 13.7225 18.7417 13.6903C18.7424 13.6582 18.7364 13.6262 18.7238 13.5966C18.7113 13.5669 18.6926 13.5403 18.669 13.5184C18.6455 13.4965 18.6175 13.4798 18.587 13.4696C18.5565 13.4593 18.5242 13.4556 18.4922 13.4587C18.4601 13.4618 18.4291 13.4717 18.4012 13.4877C18.3733 13.5037 18.3491 13.5255 18.3302 13.5515C18.1375 13.8112 17.703 14.284 17.1538 14.1668C16.4044 14.0064 15.896 13.3911 16.1353 12.1298C16.3051 11.2582 16.9968 10.3093 17.4084 9.80936C17.4393 9.77703 17.4619 9.73769 17.4742 9.69472C17.4864 9.65175 17.4881 9.60644 17.479 9.56269C17.4699 9.51893 17.4503 9.47804 17.4219 9.44354C17.3935 9.40903 17.3571 9.38195 17.3159 9.36461C17.2501 9.33475 17.1753 9.3315 17.1071 9.35554C17.0389 9.37959 16.9827 9.42906 16.9501 9.49362C16.7082 9.97486 16.0555 11.1614 15.5217 11.1402C15.0523 11.1215 14.5032 10.8134 14.2188 10.631C14.2 10.6182 14.1788 10.6096 14.1565 10.6056C14.1341 10.6016 14.1112 10.6022 14.0891 10.6076C14.0671 10.613 14.0464 10.6229 14.0284 10.6367C14.0104 10.6505 13.9955 10.6679 13.9846 10.6878C13.9657 10.7247 13.962 10.7675 13.9744 10.807C13.9868 10.8466 14.0142 10.8797 14.0508 10.8992C14.6101 11.1928 15.2059 11.8005 15.2806 12.0764C15.3613 12.3709 15.2008 12.8521 14.6661 13.8418C14.1314 14.8314 12.6291 15.3398 11.8839 14.2432C11.2898 13.3707 11.1319 11.4491 11.2177 10.5826C11.2222 10.5437 11.219 10.5043 11.2082 10.4667C11.1973 10.4291 11.179 10.3941 11.1545 10.3636C11.1299 10.3332 11.0994 10.308 11.065 10.2894C11.0305 10.2709 10.9926 10.2595 10.9537 10.2558C10.9142 10.2532 10.8746 10.2588 10.8374 10.2723C10.8001 10.2858 10.7661 10.3068 10.7374 10.3341C10.7087 10.3613 10.686 10.3943 10.6706 10.4307C10.6552 10.4672 10.6476 10.5065 10.6481 10.5461C10.6583 11.1971 10.9622 12.5831 10.7067 13.3071C10.3859 14.2169 9.34276 14.671 8.70025 14.1898C8.24872 13.8503 8.34038 12.9811 8.43459 12.4923C8.44395 12.4613 8.44493 12.4283 8.43742 12.3968C8.42991 12.3653 8.41419 12.3363 8.39185 12.3129C8.36951 12.2894 8.34136 12.2723 8.31025 12.2633C8.27914 12.2542 8.2462 12.2536 8.21477 12.2614C8.17154 12.2694 8.13248 12.2922 8.1044 12.3261C8.07632 12.3599 8.06101 12.4025 8.06114 12.4464C8.06114 12.7664 8.02465 13.5727 7.6843 13.7849C7.40421 13.9598 7.136 13.7467 6.98408 13.5778C6.95424 13.5439 6.91261 13.5227 6.86767 13.5184C6.82272 13.5142 6.77785 13.5272 6.74218 13.5549C6.72281 13.5704 6.70697 13.5899 6.69572 13.6121C6.68448 13.6342 6.67808 13.6585 6.67695 13.6833C6.67583 13.7082 6.68001 13.7329 6.6892 13.756C6.6984 13.7791 6.71241 13.7999 6.7303 13.8172C6.84149 13.9233 7.02482 14.0964 7.24719 14.3043C7.32697 14.4172 7.43476 14.6141 7.36347 14.7754C7.29217 14.9367 6.92212 15.0181 6.70229 15.0496C6.68234 15.0525 6.66326 15.0597 6.64631 15.0706C6.62937 15.0816 6.61495 15.096 6.60402 15.113C6.5931 15.1299 6.58592 15.149 6.58296 15.1689C6.58 15.1889 6.58133 15.2092 6.58686 15.2286V15.2354C6.59294 15.256 6.60357 15.275 6.61797 15.291C6.63237 15.3069 6.65016 15.3194 6.67004 15.3276C6.68992 15.3357 6.71138 15.3393 6.73283 15.338C6.75427 15.3368 6.77516 15.3307 6.79396 15.3203C7.09017 15.165 7.787 15.1506 7.94147 15.1556C8.72572 15.2057 9.49299 15.7014 9.90972 16.3575C10.3265 17.0136 10.3052 17.9149 10.3519 18.6678C10.4589 20.406 10.4911 28.4098 10.0362 29.0786C9.58126 29.7474 7.91431 30.6437 7.91431 30.6437" fill="#047857"/>
<path fill-rule="evenodd" clip-rule="evenodd" d="M17.3631 9.25667C17.4212 9.28142 17.4726 9.31983 17.5128 9.36864C17.5533 9.41787 17.5813 9.47621 17.5943 9.53864C17.6072 9.60107 17.6049 9.66572 17.5873 9.72703C17.5702 9.78682 17.5392 9.84169 17.4968 9.88715C17.2936 10.1342 17.0228 10.4902 16.7821 10.8908C16.5397 11.2941 16.3321 11.7356 16.2509 12.152C16.1346 12.7654 16.2036 13.2032 16.3758 13.5024C16.5467 13.7993 16.8293 13.9769 17.1784 14.0516M17.3631 9.25667C17.2699 9.21487 17.1642 9.21048 17.0679 9.24445C16.9711 9.2786 16.8912 9.34887 16.845 9.44056C16.725 9.67919 16.5048 10.0894 16.2505 10.4356C16.1231 10.609 15.9905 10.7617 15.8611 10.8687C15.7289 10.978 15.6164 11.0261 15.5263 11.0225C15.313 11.014 15.0741 10.9388 14.8484 10.8392C14.6248 10.7405 14.4224 10.6216 14.2834 10.5325C14.2514 10.5111 14.2152 10.4965 14.1773 10.4896C14.1388 10.4827 14.0993 10.4839 14.0614 10.4931C14.0234 10.5023 13.9877 10.5194 13.9567 10.5432C13.9257 10.567 13.9 10.597 13.8813 10.6313L13.8798 10.634C13.8468 10.6984 13.8404 10.7731 13.8621 10.8422C13.8837 10.9112 13.9316 10.9689 13.9954 11.003L13.996 11.0033C14.2632 11.1436 14.5429 11.3612 14.7651 11.5786C14.876 11.6869 14.9707 11.7934 15.0413 11.8878C15.1141 11.985 15.1543 12.0602 15.167 12.1071L15.1671 12.1074C15.1979 12.2202 15.1872 12.3865 15.0928 12.6599C14.9992 12.9314 14.8292 13.2923 14.5625 13.7857C14.3118 14.2499 13.8316 14.603 13.3295 14.7096C12.8335 14.8149 12.3231 14.68 11.9813 14.177C11.6999 13.7638 11.5148 13.0874 11.4123 12.3934C11.3104 11.7034 11.2931 11.0168 11.3347 10.5951C11.3409 10.541 11.3363 10.4863 11.3213 10.434C11.306 10.3813 11.2805 10.3322 11.246 10.2896C11.2116 10.2469 11.1689 10.2116 11.1206 10.1857C11.0723 10.1597 11.0194 10.1437 10.9648 10.1385L10.9614 10.1383C10.9056 10.1346 10.8498 10.1425 10.7973 10.1615C10.7448 10.1805 10.6968 10.2102 10.6563 10.2487C10.6158 10.2871 10.5837 10.3335 10.5621 10.385C10.5404 10.4364 10.5296 10.4918 10.5304 10.5476C10.5331 10.7169 10.5547 10.9312 10.5805 11.1633C10.586 11.2129 10.5918 11.2635 10.5976 11.3148C10.6192 11.5055 10.642 11.7066 10.6598 11.9094C10.7052 12.4297 10.7138 12.933 10.5957 13.2678C10.4464 13.6912 10.129 14.0078 9.77683 14.1622C9.42428 14.3167 9.05006 14.3046 8.77085 14.0955C8.58734 13.9574 8.50129 13.7 8.48021 13.389C8.45961 13.0851 8.50323 12.7595 8.54919 12.5196C8.56277 12.4706 8.56373 12.419 8.55193 12.3694C8.5396 12.3177 8.51377 12.2701 8.47709 12.2316C8.44041 12.1931 8.39418 12.165 8.3431 12.1501C8.29319 12.1356 8.24041 12.1343 8.18987 12.1462C8.12094 12.1598 8.05874 12.1967 8.01381 12.2508C7.96811 12.3058 7.9432 12.3752 7.94341 12.4467L8.06113 12.4464H7.94341C7.94341 12.6033 7.93435 12.8763 7.88474 13.1337C7.85993 13.2625 7.82577 13.383 7.77998 13.4816C7.73369 13.5813 7.68009 13.6487 7.622 13.6849C7.52126 13.7478 7.4261 13.7426 7.33297 13.7022C7.23459 13.6595 7.14313 13.5785 7.07195 13.4994C7.02235 13.4434 6.9533 13.4082 6.87876 13.4012C6.80399 13.3941 6.72933 13.4158 6.66999 13.4618L6.66849 13.463C6.63607 13.489 6.60957 13.5217 6.59075 13.5587C6.57193 13.5958 6.56122 13.6364 6.55934 13.6779C6.55746 13.7195 6.56444 13.7609 6.57984 13.7995C6.59523 13.8381 6.61867 13.873 6.6486 13.9019L6.64902 13.9023C6.75906 14.0073 6.93924 14.1775 7.15773 14.3818C7.19236 14.4321 7.22883 14.4949 7.25036 14.5591C7.27357 14.6283 7.27483 14.6847 7.25579 14.7277C7.25123 14.738 7.23638 14.7578 7.19754 14.7826C7.16009 14.8066 7.10975 14.8293 7.05019 14.8498C6.93124 14.8908 6.79197 14.9177 6.68563 14.9329L6.68494 14.933C6.64843 14.9385 6.6135 14.9516 6.58247 14.9717C6.55146 14.9917 6.52506 15.0181 6.50506 15.0491C6.48506 15.0801 6.47191 15.1151 6.46649 15.1516C6.46193 15.1824 6.46294 15.2137 6.46945 15.244C6.47006 15.2524 6.47157 15.2606 6.47394 15.2687C6.48501 15.3062 6.50436 15.3407 6.53058 15.3698C6.55679 15.3988 6.58919 15.4216 6.62539 15.4364C6.66158 15.4513 6.70064 15.4578 6.7397 15.4555C6.77821 15.4532 6.81573 15.4425 6.84957 15.424C6.97528 15.3585 7.20171 15.3173 7.43223 15.2949C7.6561 15.2732 7.86229 15.2709 7.9358 15.2732C8.67824 15.3213 9.41208 15.7935 9.81034 16.4205C10.0055 16.7278 10.1012 17.0977 10.1529 17.4916C10.1898 17.7732 10.2034 18.0582 10.2167 18.3375C10.2221 18.4511 10.2275 18.5638 10.2344 18.6749C10.2876 19.5394 10.3225 21.9713 10.287 24.2723C10.2693 25.4224 10.2341 26.5376 10.175 27.4061C10.1455 27.8406 10.1101 28.2114 10.0683 28.4932C10.0474 28.6342 10.0252 28.7508 10.0019 28.841C9.97771 28.9347 9.95516 28.9883 9.93884 29.0123C9.83498 29.165 9.65632 29.3377 9.43869 29.5137C9.22274 29.6883 8.97538 29.8605 8.7405 30.0131C8.50586 30.1656 8.2851 30.2974 8.12293 30.3912C8.04189 30.4381 7.97559 30.4753 7.92964 30.5009C7.90667 30.5136 7.88879 30.5234 7.87671 30.53L7.86301 30.5375L7.85877 30.5398C7.80151 30.5706 7.77982 30.6421 7.81061 30.6994C7.8414 30.7566 7.91278 30.7781 7.97005 30.7473L7.9143 30.6436C7.97005 30.7473 7.97002 30.7473 7.97005 30.7473L7.97043 30.7471L7.97517 30.7445L7.98955 30.7367C8.00211 30.7298 8.02048 30.7197 8.04398 30.7067C8.09097 30.6806 8.15845 30.6426 8.2408 30.595C8.4054 30.4998 8.62981 30.3658 8.86877 30.2106C9.1075 30.0555 9.36217 29.8783 9.58673 29.6968C9.8096 29.5165 10.0099 29.3264 10.1335 29.1447C10.1741 29.0851 10.2046 28.9978 10.2299 28.8999C10.256 28.7986 10.2797 28.673 10.3012 28.5277C10.3443 28.237 10.3802 27.8591 10.4099 27.4221C10.4694 26.5475 10.5047 25.4277 10.5225 24.276C10.5579 21.9733 10.5232 19.5342 10.4694 18.6605C10.463 18.5563 10.4578 18.4477 10.4524 18.3364C10.4389 18.0535 10.4246 17.7528 10.3863 17.461C10.3327 17.0519 10.2307 16.6431 10.0091 16.2943C9.5742 15.6096 8.77438 15.0908 7.94896 15.0381L7.94534 15.0379C7.86278 15.0352 7.64485 15.0377 7.40948 15.0606C7.1795 15.0829 6.90998 15.1265 6.73927 15.216L6.73689 15.2173C6.73352 15.2191 6.72977 15.2202 6.72593 15.2204C6.72209 15.2207 6.71824 15.22 6.71467 15.2186C6.71111 15.2171 6.70792 15.2149 6.70534 15.212C6.70445 15.211 6.70364 15.21 6.70291 15.2088C6.70219 15.2046 6.70124 15.2004 6.70006 15.1963C6.69912 15.193 6.69889 15.1895 6.69939 15.1862C6.6999 15.1828 6.70111 15.1795 6.70296 15.1767C6.70481 15.1738 6.70726 15.1714 6.71013 15.1695C6.713 15.1676 6.71623 15.1664 6.71961 15.1659L6.70228 15.0495L6.71893 15.166C6.83242 15.1498 6.98809 15.1203 7.12695 15.0724C7.19629 15.0485 7.26557 15.0186 7.32443 14.981C7.38189 14.9442 7.44004 14.8933 7.47113 14.8229C7.52338 14.7047 7.50639 14.582 7.47358 14.4842C7.44049 14.3856 7.38656 14.2975 7.34332 14.2363C7.3387 14.2298 7.33343 14.2238 7.32759 14.2183C7.10557 14.0107 6.92266 13.8379 6.81182 13.7322C6.80605 13.7266 6.80153 13.7198 6.79855 13.7123C6.79554 13.7048 6.79418 13.6967 6.79455 13.6886C6.79491 13.6805 6.797 13.6726 6.80068 13.6653C6.80421 13.6584 6.80912 13.6522 6.81512 13.6472C6.82699 13.6383 6.84176 13.6342 6.85655 13.6356C6.87167 13.637 6.88567 13.6441 6.89571 13.6555L6.89654 13.6565C6.97724 13.7462 7.0957 13.8559 7.23926 13.9182C7.38823 13.9828 7.56728 13.9967 7.74663 13.8847C7.85868 13.8148 7.93725 13.7019 7.99353 13.5808C8.05031 13.4585 8.08908 13.3176 8.11594 13.1783C8.16966 12.8995 8.17886 12.6094 8.17886 12.4464L8.17886 12.446C8.17881 12.4296 8.18451 12.4138 8.19496 12.4012C8.20542 12.3886 8.21997 12.3801 8.23606 12.3771C8.23846 12.3767 8.24085 12.3762 8.24321 12.3756C8.25446 12.3728 8.26625 12.373 8.27738 12.3762C8.28851 12.3795 8.29859 12.3856 8.30658 12.394C8.31458 12.4024 8.3202 12.4127 8.32289 12.424C8.32558 12.4353 8.32523 12.4471 8.32188 12.4582C8.32071 12.462 8.31975 12.466 8.31898 12.4699C8.27109 12.7184 8.22255 13.0694 8.2453 13.4049C8.26771 13.7355 8.36156 14.0823 8.62949 14.2838C8.99279 14.5559 9.46153 14.5575 9.87136 14.3778C10.2816 14.198 10.6462 13.8327 10.8177 13.3462C10.955 12.957 10.9394 12.4053 10.8943 11.8889C10.8763 11.6827 10.853 11.4777 10.8314 11.2866C10.8256 11.2358 10.8199 11.1859 10.8145 11.1372C10.7885 10.9037 10.7683 10.7006 10.7658 10.5443C10.7655 10.521 10.77 10.4978 10.7791 10.4764C10.7881 10.4548 10.8016 10.4354 10.8185 10.4194C10.8354 10.4033 10.8555 10.3909 10.8774 10.3829C10.8988 10.3752 10.9216 10.3718 10.9443 10.3731C10.967 10.3755 10.9891 10.3823 11.0092 10.3931C11.0299 10.4042 11.0481 10.4193 11.0629 10.4375C11.0776 10.4558 11.0885 10.4768 11.095 10.4993C11.1015 10.5218 11.1035 10.5454 11.1007 10.5687L11.1005 10.5709C11.0565 11.0159 11.0753 11.7228 11.1794 12.4278C11.2829 13.1293 11.4738 13.8501 11.7865 14.3093C12.19 14.903 12.8033 15.0621 13.3784 14.9399C13.9474 14.8191 14.4858 14.4231 14.7697 13.8977C15.0378 13.4015 15.2153 13.0269 15.3154 12.7367C15.4148 12.4487 15.4439 12.2272 15.3942 12.0455M17.2673 9.47175C17.2291 9.45444 17.1857 9.45256 17.1462 9.4665C17.1067 9.48042 17.0742 9.50906 17.0553 9.54642M17.331 9.51829C17.3147 9.49851 17.2939 9.48299 17.2703 9.47305L17.2673 9.47175M17.331 9.51829C17.3473 9.53807 17.3585 9.56151 17.3637 9.58659L17.331 9.51829ZM17.3637 9.58659C17.369 9.61167 17.368 9.63765 17.361 9.66228L17.3637 9.58659ZM17.361 9.66228C17.3539 9.68691 17.341 9.70946 17.3233 9.72799L17.361 9.66228ZM17.3233 9.72799C17.3213 9.73007 17.3194 9.73223 17.3176 9.73445L17.3233 9.72799ZM17.3176 9.73445C17.1094 9.98724 16.8298 10.3543 16.5803 10.7695L17.3176 9.73445ZM16.5803 10.7695C16.3315 11.1834 16.1084 11.6521 16.0198 12.1073L16.5803 10.7695ZM14.0887 10.7428C14.0844 10.7519 14.0837 10.7622 14.0867 10.7718C14.0898 10.7817 14.0967 10.79 14.1058 10.795C14.3979 10.9485 14.6957 11.1814 14.9297 11.4102C15.0471 11.525 15.1503 11.6405 15.2298 11.7468C15.3072 11.8502 15.3695 11.9543 15.3942 12.0452M16.0198 12.1073L16.0196 12.1078L16.0198 12.1073ZM16.0196 12.1078C15.8967 12.7555 15.9622 13.2559 16.1717 13.6198L16.0196 12.1078ZM16.1717 13.6198C16.3825 13.9859 16.7288 14.1962 17.1292 14.2819L16.1717 13.6198ZM18.4807 13.3415C18.5293 13.3367 18.5784 13.3423 18.6246 13.3579C18.6709 13.3735 18.7133 13.3988 18.7491 13.432C18.7849 13.4652 18.8133 13.5057 18.8323 13.5507C18.8513 13.5956 18.8605 13.6442 18.8594 13.693C18.8583 13.7418 18.8468 13.7898 18.8257 13.8339C18.8055 13.8762 18.7769 13.9139 18.7416 13.9448C18.5844 14.1037 18.4179 14.253 18.243 14.3922C18.2405 14.3942 18.2378 14.3962 18.2351 14.398C18.2031 14.4193 18.1686 14.4384 18.1435 14.4523C18.1343 14.4574 18.1263 14.4618 18.1202 14.4653C18.0918 14.4818 18.0844 14.4897 18.0811 14.4944C18.0763 14.5014 18.0549 14.5396 18.0979 14.7289L18.0982 14.7305C18.114 14.8049 18.1807 14.8915 18.2935 14.9815C18.4023 15.0684 18.5361 15.1443 18.653 15.2019L18.6541 15.2025C18.7004 15.2259 18.7407 15.2597 18.7719 15.3013C18.803 15.3429 18.8241 15.3911 18.8336 15.4422C18.843 15.4933 18.8406 15.5458 18.8264 15.5958C18.8122 15.6458 18.7867 15.6918 18.7518 15.7303C18.7506 15.7316 18.7494 15.7329 18.7481 15.7342C18.7121 15.7705 18.6684 15.7983 18.6203 15.8157C18.5722 15.833 18.5208 15.8395 18.4699 15.8345C18.419 15.8296 18.3698 15.8134 18.326 15.7872C18.2822 15.7609 18.2447 15.7253 18.2163 15.6829C18.0641 15.4579 17.8469 15.2847 17.5938 15.1861C17.5726 15.1785 17.5516 15.1709 17.5307 15.1633C17.2541 15.0636 17.0051 14.9739 16.7922 14.9707C16.6823 14.9691 16.5904 14.9911 16.5131 15.0425C16.4358 15.094 16.3618 15.1824 16.3015 15.3334C16.2914 15.3587 16.2779 15.4221 16.2651 15.5336C16.2527 15.6406 16.242 15.7805 16.233 15.9498C16.2148 16.2882 16.2034 16.7386 16.1971 17.2673C16.1846 18.3245 16.1929 19.6903 16.2096 21.0903C16.2264 22.4986 16.2517 23.9424 16.2727 25.1397C16.2934 26.3209 16.3099 27.2623 16.3099 27.6933C16.3099 28.5135 16.7447 29.15 17.3536 29.6129C17.9642 30.0769 18.741 30.3584 19.3944 30.4628C19.4586 30.4731 19.5024 30.5335 19.4921 30.5977C19.4818 30.6619 19.4215 30.7056 19.3573 30.6953C18.673 30.5859 17.8581 30.292 17.2112 29.8003C16.5627 29.3074 16.0744 28.6081 16.0744 27.6933C16.0744 27.2633 16.058 26.3258 16.0374 25.1478C16.0164 23.951 15.9911 22.5061 15.9742 21.0932C15.9575 19.6927 15.9491 18.3247 15.9617 17.2646C15.9679 16.7346 15.9795 16.2805 15.9979 15.9372C16.0071 15.7657 16.018 15.6205 16.0312 15.5067C16.0438 15.3974 16.0596 15.3043 16.0829 15.246C16.1562 15.0626 16.2561 14.9307 16.3827 14.8465C16.5095 14.7622 16.6516 14.7331 16.7957 14.7353C17.0504 14.7391 17.337 14.8428 17.6013 14.9385C17.626 14.9474 17.6505 14.9563 17.6748 14.965L17.6777 14.966C17.9762 15.0819 18.2322 15.2861 18.4116 15.5513L18.4119 15.5519C18.421 15.5654 18.4329 15.5768 18.4469 15.5851C18.4608 15.5935 18.4764 15.5986 18.4926 15.6002C18.5088 15.6017 18.5251 15.5997 18.5404 15.5942C18.5549 15.589 18.568 15.5808 18.5791 15.5702C18.5888 15.559 18.5959 15.5458 18.5999 15.5315C18.6042 15.5164 18.6049 15.5005 18.6021 15.4851C18.5992 15.4696 18.5928 15.455 18.5834 15.4424C18.5741 15.43 18.562 15.4198 18.5482 15.4128C18.4242 15.3516 18.2739 15.2672 18.1466 15.1656C18.0233 15.0671 17.9018 14.9372 17.8681 14.7803C17.8263 14.5957 17.8182 14.4601 17.8877 14.3601C17.9217 14.3112 17.9668 14.2822 18.0018 14.2618C18.016 14.2536 18.0283 14.2468 18.04 14.2403C18.0603 14.2291 18.0786 14.2191 18.1005 14.2047C18.2678 14.0714 18.4271 13.9282 18.5774 13.776C18.5792 13.7741 18.5811 13.7724 18.583 13.7707C18.5837 13.7701 18.5844 13.7694 18.5852 13.7688C18.597 13.7588 18.6066 13.7463 18.6133 13.7323C18.62 13.7183 18.6236 13.7031 18.624 13.6875C18.6244 13.672 18.6214 13.6566 18.6154 13.6423C18.6093 13.628 18.6003 13.6151 18.5889 13.6046C18.5776 13.594 18.5641 13.586 18.5494 13.581C18.5347 13.5761 18.5191 13.5743 18.5036 13.5758C18.4882 13.5773 18.4732 13.5821 18.4597 13.5898C18.4463 13.5975 18.4346 13.608 18.4255 13.6206L18.4247 13.6216C18.3246 13.7566 18.1585 13.9514 17.9416 14.098C17.7237 14.2451 17.4452 14.3493 17.1292 14.2819M18.4807 13.3415C18.4321 13.3462 18.3851 13.3612 18.3427 13.3855L18.4807 13.3415ZM18.3427 13.3855C18.3005 13.4097 18.2639 13.4425 18.2353 13.4817L18.3427 13.3855ZM18.2353 13.4817C18.1428 13.6064 17.9954 13.7775 17.8098 13.9029C17.6249 14.0277 17.4115 14.1014 17.1784 14.0516" fill="#047857"/>
<g style="mix-blend-mode:multiply" opacity="0.5">
<path d="M13.2249 29.0318C13.2249 29.0318 12.9754 28.5532 12.2853 28.9741C11.5953 29.3951 11.5215 29.9714 11.0394 30.125C10.5573 30.2787 10.2534 30.1055 10.1575 30.5078C10.0616 30.9101 9.9657 31.0638 10.0421 31.1215C10.1185 31.1792 10.0998 30.6971 10.368 30.5851C10.6362 30.473 11.1158 30.451 11.4799 30.1607C11.844 29.8704 12.669 28.9173 13.2249 29.0318Z" fill="#047857"/>
</g>
<path fill-rule="evenodd" clip-rule="evenodd" d="M9.2697 15.3841C9.30144 15.3274 9.37317 15.3071 9.42991 15.3389C9.91028 15.6075 10.2678 16.052 10.4272 16.5788C10.4461 16.641 10.4109 16.7067 10.3487 16.7256C10.2864 16.7444 10.2207 16.7092 10.2019 16.647C10.0601 16.1785 9.74216 15.7833 9.31498 15.5443C9.25823 15.5126 9.23796 15.4409 9.2697 15.3841Z" fill="#047857"/>
<path fill-rule="evenodd" clip-rule="evenodd" d="M10.3605 16.6861C10.4246 16.6754 10.4853 16.7187 10.496 16.7828C10.5291 16.9809 10.5522 17.1806 10.5653 17.381C10.5695 17.4459 10.5203 17.5019 10.4555 17.5062C10.3906 17.5104 10.3346 17.4612 10.3303 17.3963C10.3177 17.2038 10.2955 17.0119 10.2638 16.8216C10.2531 16.7574 10.2964 16.6968 10.3605 16.6861Z" fill="#047857"/>
<path fill-rule="evenodd" clip-rule="evenodd" d="M10.5533 18.1181C10.6182 18.1159 10.6727 18.1667 10.675 18.2317L10.5573 18.2358L10.4396 18.2398C10.4374 18.1748 10.4883 18.1203 10.5533 18.1181ZM10.5573 18.2358C10.4396 18.2398 10.4396 18.2398 10.4396 18.2398L10.4417 18.3026C10.4431 18.3437 10.4451 18.4044 10.4475 18.4823C10.4525 18.6382 10.4593 18.8633 10.4671 19.14C10.4827 19.6935 10.5018 20.4532 10.5163 21.2786C10.5453 22.9314 10.5553 24.8406 10.4806 25.8857C10.476 25.9505 10.5248 26.0068 10.5897 26.0115C10.6545 26.0161 10.7108 25.9673 10.7155 25.9024C10.791 24.8451 10.7807 22.9252 10.7517 21.2745C10.7372 20.448 10.718 19.6874 10.7025 19.1334C10.6947 18.8564 10.6878 18.631 10.6829 18.4749C10.6804 18.3968 10.6784 18.336 10.6771 18.2948L10.675 18.2317C10.675 18.2317 10.675 18.2317 10.5573 18.2358Z" fill="#047857"/>
<path fill-rule="evenodd" clip-rule="evenodd" d="M10.6038 26.0633C10.6688 26.0665 10.7188 26.1217 10.7156 26.1866L10.598 26.1808L10.4805 26.175C10.4837 26.1101 10.5389 26.0601 10.6038 26.0633ZM10.598 26.1808L10.4805 26.175L10.4775 26.2346C10.4756 26.2727 10.4728 26.3274 10.4694 26.3937C10.4626 26.5263 10.4533 26.7054 10.443 26.8912C10.4224 27.2663 10.3987 27.6596 10.3854 27.7632C10.3771 27.8277 10.4227 27.8867 10.4871 27.895C10.5516 27.9032 10.6106 27.8577 10.6189 27.7932C10.6336 27.6786 10.6578 27.2733 10.6781 26.9042C10.6884 26.718 10.6978 26.5386 10.7046 26.4058C10.708 26.3394 10.7107 26.2846 10.7127 26.2464L10.7156 26.1866L10.598 26.1808Z" fill="#047857"/>
<path fill-rule="evenodd" clip-rule="evenodd" d="M11.127 19.2782C11.192 19.2765 11.2461 19.3277 11.2479 19.3927L11.2759 20.4163C11.2776 20.4813 11.2264 20.5354 11.1614 20.5372C11.0964 20.539 11.0423 20.4877 11.0405 20.4227L11.0125 19.3991C11.0107 19.3342 11.062 19.28 11.127 19.2782Z" fill="#047857"/>
<path fill-rule="evenodd" clip-rule="evenodd" d="M11.1697 20.6431C11.2347 20.6419 11.2884 20.6937 11.2895 20.7587L11.1718 20.7608L11.0541 20.7629C11.0529 20.6979 11.1047 20.6442 11.1697 20.6431ZM11.1718 20.7608C11.0541 20.7629 11.0541 20.7628 11.0541 20.7629L11.0569 20.93C11.0587 21.0374 11.0611 21.1921 11.0639 21.3818C11.0694 21.7611 11.0762 22.2801 11.0812 22.8388C11.0914 23.9574 11.0948 25.2307 11.0678 25.8619C11.065 25.9268 11.1154 25.9817 11.1804 25.9845C11.2453 25.9873 11.3002 25.9369 11.303 25.8719C11.3303 25.2334 11.3269 23.9536 11.3167 22.8366C11.3116 22.2774 11.3048 21.758 11.2993 21.3784C11.2965 21.1885 11.2941 21.0336 11.2923 20.9262L11.2895 20.7587C11.2895 20.7587 11.2895 20.7587 11.1718 20.7608Z" fill="#047857"/>
<path fill-rule="evenodd" clip-rule="evenodd" d="M11.6874 26.5962C11.7524 26.5946 11.8064 26.6459 11.808 26.7109L11.8216 27.2431C11.8233 27.3081 11.7719 27.3621 11.7069 27.3638C11.6419 27.3654 11.5879 27.3141 11.5863 27.2491L11.5727 26.7169C11.571 26.6519 11.6224 26.5979 11.6874 26.5962Z" fill="#047857"/>
<path fill-rule="evenodd" clip-rule="evenodd" d="M15.3729 11.8118C15.4296 11.7798 15.5014 11.7997 15.5334 11.8563L15.4309 11.9143C15.5334 11.8563 15.5334 11.8564 15.5334 11.8565L15.5335 11.8566L15.5336 11.8568L15.5339 11.8573L15.5346 11.8585L15.5362 11.8617C15.5375 11.8641 15.539 11.8671 15.5407 11.8707C15.5442 11.878 15.5485 11.8877 15.5533 11.9001C15.5629 11.9247 15.5744 11.9595 15.5845 12.0047C15.6047 12.0954 15.6192 12.2271 15.6033 12.4027L15.6029 12.4067L15.6028 12.4067C15.5724 12.6503 15.5043 12.8877 15.401 13.1105C15.3736 13.1694 15.3036 13.1951 15.2447 13.1677C15.1857 13.1403 15.1601 13.0704 15.1874 13.0114C15.2802 12.8114 15.3414 12.5982 15.369 12.3795C15.3824 12.2286 15.3694 12.122 15.3547 12.0559C15.3473 12.0227 15.3394 11.9994 15.334 11.9856C15.3313 11.9788 15.3292 11.9742 15.3282 11.972C15.3278 11.9713 15.3276 11.9708 15.3275 11.9706C15.3275 11.9706 15.3275 11.9706 15.3275 11.9706C15.3274 11.9704 15.3274 11.9704 15.3274 11.9704L15.3276 11.9708L15.3279 11.9714L15.3281 11.9718L15.3282 11.972" fill="#047857"/>
<path fill-rule="evenodd" clip-rule="evenodd" d="M15.2798 13.1606C15.3377 13.1902 15.3607 13.2611 15.3312 13.319L15.2263 13.2655L15.1215 13.2119C15.151 13.154 15.2219 13.131 15.2798 13.1606ZM15.1215 13.2119L15.2263 13.2655L15.3312 13.319L15.3274 13.3264L15.3167 13.3471C15.3075 13.365 15.2942 13.3907 15.278 13.4218C15.2456 13.484 15.2014 13.5682 15.154 13.6559C15.1067 13.7435 15.0559 13.8353 15.0106 13.9126C14.9675 13.986 14.9233 14.0571 14.8901 14.0946C14.8471 14.1433 14.7727 14.1479 14.724 14.1048C14.6753 14.0618 14.6707 13.9874 14.7137 13.9386C14.729 13.9214 14.7619 13.8712 14.8075 13.7935C14.8508 13.7197 14.9001 13.6306 14.9468 13.544C14.9934 13.4577 15.0371 13.3746 15.0692 13.313C15.0852 13.2823 15.0983 13.257 15.1074 13.2393L15.1178 13.219L15.1215 13.2119Z" fill="#047857"/>
<path fill-rule="evenodd" clip-rule="evenodd" d="M10.4114 14.1831C10.4554 14.231 10.4522 14.3055 10.4044 14.3494C10.2344 14.5056 10.0284 14.6173 9.80475 14.6745C9.58113 14.7317 9.34682 14.7328 9.12271 14.6775C9.05958 14.6619 9.02103 14.5981 9.03659 14.535C9.05216 14.4719 9.11596 14.4333 9.17908 14.4489C9.36549 14.4949 9.56037 14.494 9.74636 14.4464C9.93236 14.3988 10.1037 14.3059 10.2451 14.176C10.293 14.1321 10.3674 14.1352 10.4114 14.1831Z" fill="#047857"/>
<path fill-rule="evenodd" clip-rule="evenodd" d="M11.1031 26.6233C11.1681 26.6233 11.2208 26.676 11.2208 26.741V29.2805C11.2208 29.2922 11.219 29.304 11.2155 29.3152L11.1031 29.2805C11.2155 29.3152 11.2155 29.3153 11.2155 29.3154L11.2154 29.3156L11.2153 29.316L11.215 29.3169L11.2143 29.319L11.2122 29.3249C11.2106 29.3295 11.2083 29.3354 11.2053 29.3424C11.1993 29.3565 11.1903 29.3754 11.1775 29.398C11.1518 29.4433 11.1108 29.5034 11.0469 29.5711C10.9188 29.7067 10.7016 29.8695 10.3386 30.0045C10.3334 30.0064 10.3281 30.008 10.3226 30.0092C10.1532 30.046 10.0024 30.1419 9.89716 30.2796L9.89625 30.2808L9.89624 30.2808C9.82938 30.3661 9.77708 30.4433 9.72433 30.5213C9.69407 30.566 9.66366 30.6109 9.63027 30.6577C9.54165 30.7818 9.44193 30.9032 9.2942 31.0195C9.24312 31.0598 9.1691 31.051 9.12888 30.9999C9.08865 30.9488 9.09745 30.8748 9.14853 30.8346C9.27241 30.737 9.35729 30.6348 9.43864 30.5209C9.46536 30.4834 9.49298 30.4427 9.52206 30.3998C9.57815 30.3172 9.63966 30.2265 9.71052 30.1361C9.8479 29.9566 10.0438 29.831 10.264 29.781C10.5924 29.6577 10.7759 29.5151 10.8757 29.4094C10.9262 29.356 10.956 29.3112 10.9726 29.2819C10.9783 29.272 10.9824 29.2638 10.9853 29.2576V26.741C10.9853 26.676 11.038 26.6233 11.1031 26.6233Z" fill="#047857"/>
<path fill-rule="evenodd" clip-rule="evenodd" d="M11.5303 17.7174C11.5953 17.7162 11.649 17.7679 11.6502 17.8329L11.7674 23.9515C11.7686 24.0165 11.7169 24.0702 11.6519 24.0715C11.5869 24.0727 11.5332 24.021 11.5319 23.956L11.4148 17.8374C11.4136 17.7724 11.4653 17.7187 11.5303 17.7174Z" fill="#047857"/>
<path fill-rule="evenodd" clip-rule="evenodd" d="M11.9643 29.8538C11.8507 29.9631 11.7374 30.0721 11.6269 30.1632C11.3969 30.353 11.2301 30.4438 11.1145 30.4862C11.0564 30.5075 11.0106 30.5168 10.9759 30.52C10.9586 30.5216 10.9441 30.5217 10.9324 30.521C10.9265 30.5207 10.9213 30.5202 10.9169 30.5196C10.9146 30.5193 10.9126 30.5189 10.9107 30.5186L10.908 30.5181L10.9068 30.5179L10.9062 30.5177L10.9059 30.5177C10.9058 30.5176 10.9056 30.5176 10.9303 30.4046L10.9056 30.5176C10.8421 30.5037 10.8018 30.441 10.8157 30.3775C10.829 30.3169 10.8866 30.2775 10.947 30.286C10.9483 30.286 10.9507 30.2859 10.9541 30.2856C10.9662 30.2845 10.992 30.2803 11.0334 30.2651C11.1168 30.2345 11.2607 30.1602 11.4771 29.9816C11.5804 29.8963 11.6878 29.7931 11.8039 29.6815C11.8084 29.6771 11.813 29.6727 11.8176 29.6683C11.9375 29.5529 12.0657 29.4303 12.2008 29.3189C12.469 29.0979 12.7826 28.9056 13.1451 28.9056C13.4906 28.9056 13.7495 29.0107 13.9229 29.1175C14.0093 29.1707 14.0743 29.2243 14.1183 29.2652C14.1403 29.2857 14.1571 29.3031 14.1688 29.3158C14.1746 29.3222 14.1792 29.3274 14.1825 29.3313L14.1865 29.336L14.1877 29.3376L14.1882 29.3382L14.1884 29.3384L14.1885 29.3385C14.1885 29.3386 14.1885 29.3386 14.1021 29.4077L14.1886 29.3386C14.2291 29.3894 14.2209 29.4635 14.1701 29.5041C14.1193 29.5447 14.0452 29.5364 14.0046 29.4856L14.0966 29.4121C14.0046 29.4856 14.0047 29.4856 14.0047 29.4857L14.0047 29.4858L14.0048 29.4859L14.0034 29.4842C14.0018 29.4823 13.9991 29.4792 13.9952 29.475C13.9874 29.4664 13.9749 29.4535 13.9578 29.4375C13.9235 29.4056 13.8708 29.3619 13.7994 29.318C13.6573 29.2304 13.4405 29.1411 13.1451 29.1411C12.8669 29.1411 12.6072 29.2892 12.3506 29.5006C12.2234 29.6054 12.1013 29.722 11.9808 29.838C11.9753 29.8432 11.9698 29.8485 11.9643 29.8538Z" fill="#047857"/>
<path fill-rule="evenodd" clip-rule="evenodd" d="M14.122 29.4418C14.1806 29.4137 14.251 29.4384 14.2791 29.497C14.3552 29.6554 14.4047 29.8253 14.4257 29.9999C14.4334 30.0644 14.3874 30.123 14.3228 30.1308C14.2583 30.1385 14.1997 30.0925 14.1919 30.0279C14.174 29.879 14.1318 29.7341 14.0669 29.5989C14.0387 29.5403 14.0634 29.47 14.122 29.4418Z" fill="#047857"/>
<path fill-rule="evenodd" clip-rule="evenodd" d="M15.1361 29.0083C15.0402 29.0167 14.958 29.0573 14.8915 29.1497C14.7582 29.3352 14.8078 29.56 14.9233 29.7703C14.9793 29.8721 15.0459 29.9611 15.0993 30.025C15.1258 30.0568 15.1487 30.082 15.1647 30.099C15.1727 30.1075 15.1789 30.1139 15.183 30.1181L15.1876 30.1227L15.1885 30.1236C15.2352 30.1689 15.2363 30.2435 15.1911 30.2901C15.1458 30.3368 15.0713 30.3379 15.0246 30.2926L15.1066 30.2082C15.0246 30.2926 15.0246 30.2927 15.0246 30.2926L15.0243 30.2923L15.0237 30.2918L15.0219 30.2899L15.0155 30.2835C15.0101 30.2781 15.0025 30.2703 14.9932 30.2603C14.9744 30.2404 14.9484 30.2117 14.9185 30.1758C14.8589 30.1044 14.7824 30.0028 14.717 29.8836C14.5897 29.6519 14.484 29.3132 14.7004 29.0123C14.8088 28.8615 14.9547 28.7879 15.1156 28.7738C15.2709 28.7602 15.4341 28.8024 15.5877 28.8683C15.895 29.0003 16.203 29.2443 16.4117 29.443C16.4588 29.4879 16.4606 29.5624 16.4158 29.6095C16.3709 29.6566 16.2964 29.6584 16.2493 29.6136C16.0498 29.4235 15.7653 29.2008 15.4948 29.0847C15.3595 29.0266 15.2375 28.9995 15.1361 29.0083Z" fill="#047857"/>
<path fill-rule="evenodd" clip-rule="evenodd" d="M16.7301 29.6768C16.7098 29.6287 16.659 29.5984 16.6049 29.6062C16.5405 29.6154 16.4959 29.6751 16.5051 29.7395L16.6216 29.7227C16.5051 29.7395 16.5052 29.7398 16.5052 29.7401L16.5053 29.7407L16.5055 29.7419L16.5059 29.7444C16.5062 29.7461 16.5066 29.7478 16.507 29.7494C16.5077 29.7528 16.5087 29.7562 16.5097 29.7596C16.5119 29.7664 16.5146 29.7732 16.5179 29.7801C16.5244 29.7938 16.5334 29.8078 16.5451 29.8225C16.5682 29.8514 16.6044 29.8858 16.6621 29.9274C16.7768 30.01 16.9892 30.1301 17.3884 30.2958C17.3899 30.2966 17.3923 30.2979 17.3953 30.2996C17.4023 30.3035 17.4127 30.3097 17.4248 30.3179C17.4496 30.335 17.4779 30.3584 17.4994 30.3865C17.5205 30.4141 17.5321 30.4419 17.533 30.471C17.5339 30.4989 17.5254 30.5421 17.4807 30.6023C17.3115 30.8152 17.1219 31.0111 16.9147 31.187C16.8651 31.2291 16.859 31.3034 16.9011 31.353C16.9432 31.4025 17.0175 31.4086 17.0671 31.3665C17.2865 31.1802 17.4871 30.9728 17.6661 30.7474L17.6662 30.7474L17.6682 30.7447C17.7389 30.6503 17.7713 30.5556 17.7684 30.4635C17.7655 30.3724 17.7284 30.2984 17.6863 30.2433C17.6446 30.1889 17.595 30.1492 17.5579 30.1238C17.539 30.1108 17.5224 30.1009 17.5101 30.094C17.504 30.0906 17.4989 30.0879 17.4951 30.086L17.4903 30.0836L17.4887 30.0828L17.4881 30.0825L17.4879 30.0824L17.4878 30.0823C17.4877 30.0823 17.4877 30.0823 17.4373 30.1887L17.4877 30.0823C17.4859 30.0815 17.4842 30.0807 17.4824 30.0799C17.0879 29.9163 16.8935 29.8039 16.7997 29.7364C16.7553 29.7044 16.7365 29.6846 16.7301 29.6768ZM17.3863 30.2948C17.3863 30.2948 17.3863 30.2948 17.3864 30.2948L17.3863 30.2948Z" fill="#047857"/>
<path fill-rule="evenodd" clip-rule="evenodd" d="M10.8888 30.401C10.9107 30.4622 10.8789 30.5296 10.8177 30.5516C10.6855 30.599 10.577 30.696 10.5152 30.8221C10.4592 30.9448 10.4326 31.0213 10.4202 31.0648C10.414 31.0865 10.4114 31.0994 10.4105 31.1052C10.4102 31.1065 10.4101 31.1074 10.41 31.108C10.41 31.108 10.41 31.108 10.41 31.108C10.41 31.1085 10.4099 31.1087 10.4099 31.1087C10.4099 31.1087 10.41 31.1087 10.41 31.1086L10.4101 31.1064L10.4102 31.1045L10.4102 31.1033L10.4102 31.1026L10.4102 31.1023M10.2925 31.1019C10.1747 31.1019 10.1747 31.1018 10.1747 31.1018L10.1747 31.1016L10.1747 31.1012L10.1748 31.1005L10.1748 31.0989L10.1749 31.0956C10.175 31.0933 10.1752 31.0907 10.1754 31.0878C10.1759 31.0821 10.1768 31.0752 10.1781 31.0671C10.1808 31.0508 10.1855 31.0289 10.1938 30.9999C10.2104 30.9421 10.2418 30.8539 10.3017 30.7229L10.3029 30.7202L10.3029 30.7202C10.3915 30.5383 10.5478 30.3983 10.7382 30.3299C10.7994 30.308 10.8668 30.3398 10.8888 30.401" fill="#047857"/>
<path fill-rule="evenodd" clip-rule="evenodd" d="M17.5751 30.9697C17.6883 30.8288 17.8741 30.6541 18.1163 30.6541C18.3249 30.6541 18.576 30.7343 18.7645 30.8076C18.8611 30.8451 18.9455 30.8826 19.0058 30.9107C19.036 30.9247 19.0602 30.9365 19.0771 30.9448C19.0855 30.949 19.0921 30.9523 19.0966 30.9546L19.1019 30.9572L19.1033 30.958L19.1037 30.9582C19.1038 30.9582 19.104 30.9583 19.0513 31.0601L19.1037 30.9582C19.1615 30.988 19.1844 31.0592 19.1545 31.1169C19.1247 31.1747 19.0537 31.1973 18.9959 31.1675C18.9959 31.1675 18.9959 31.1675 18.9959 31.1675L18.9947 31.1669L18.9904 31.1647C18.9865 31.1627 18.9806 31.1598 18.9729 31.156C18.9575 31.1484 18.9348 31.1374 18.9064 31.1241C18.8495 31.0976 18.7699 31.0623 18.6792 31.0271C18.4935 30.9548 18.2777 30.8895 18.1163 30.8895C17.9884 30.8895 17.8636 30.9864 17.7587 31.1171C17.709 31.179 17.6693 31.2415 17.6421 31.2889C17.6285 31.3124 17.6182 31.3319 17.6114 31.3452C17.608 31.3519 17.6054 31.357 17.6038 31.3603L17.6021 31.3638L17.6019 31.3644C17.5746 31.4234 17.5046 31.4491 17.4456 31.4218C17.3866 31.3945 17.3609 31.3246 17.3882 31.2656L17.495 31.315C17.3882 31.2656 17.3881 31.2656 17.3882 31.2656L17.3883 31.2652L17.3886 31.2647L17.3893 31.263L17.392 31.2575C17.3943 31.2528 17.3975 31.2463 17.4017 31.2381C17.4101 31.2217 17.4223 31.1987 17.438 31.1713C17.4694 31.1169 17.5157 31.0436 17.5751 30.9697Z" fill="#047857"/>
<path fill-rule="evenodd" clip-rule="evenodd" d="M15.5853 18.9048C15.6503 18.9048 15.703 18.9575 15.703 19.0225V26.2335C15.703 26.2985 15.6503 26.3512 15.5853 26.3512C15.5203 26.3512 15.4676 26.2985 15.4676 26.2335V19.0225C15.4676 18.9575 15.5203 18.9048 15.5853 18.9048Z" fill="#047857"/>
<path fill-rule="evenodd" clip-rule="evenodd" d="M15.8612 23.8292C15.9262 23.8288 15.9793 23.8811 15.9797 23.9461L16.0043 27.5635C16.0048 27.6285 15.9524 27.6816 15.8874 27.6821C15.8224 27.6825 15.7693 27.6301 15.7689 27.5651L15.7443 23.9478C15.7438 23.8827 15.7962 23.8297 15.8612 23.8292Z" fill="#047857"/>
<path fill-rule="evenodd" clip-rule="evenodd" d="M15.5894 26.5649C15.6544 26.5672 15.7053 26.6217 15.703 26.6867L15.7027 26.6945L15.702 26.7174C15.7014 26.7374 15.7005 26.7667 15.6996 26.8034C15.6976 26.8768 15.6953 26.9799 15.6938 27.0987C15.6907 27.3367 15.6908 27.6353 15.7029 27.8829C15.7135 28.0993 15.8167 28.2766 15.9236 28.4036C15.9766 28.4666 16.029 28.5154 16.0679 28.5482C16.0873 28.5646 16.1032 28.5768 16.1139 28.5848C16.1192 28.5887 16.1232 28.5916 16.1257 28.5934L16.1283 28.5952C16.1283 28.5952 16.1284 28.5952 16.1283 28.5952M16.1283 28.5952C16.1824 28.6313 16.1972 28.7045 16.1611 28.7585C16.1251 28.8126 16.052 28.8273 15.9979 28.7912L16.0631 28.6934C15.9979 28.7912 15.9979 28.7912 15.9979 28.7912L15.9975 28.7909L15.997 28.7906L15.9954 28.7895L15.9904 28.7861C15.9863 28.7832 15.9805 28.779 15.9734 28.7738C15.9593 28.7632 15.9395 28.748 15.9161 28.7281C15.8692 28.6886 15.8068 28.6305 15.7434 28.5551C15.6175 28.4054 15.4818 28.1804 15.4677 27.8944C15.4553 27.6395 15.4553 27.335 15.4584 27.0956C15.4599 26.9757 15.4623 26.8715 15.4642 26.7973C15.4652 26.7602 15.466 26.7305 15.4667 26.7101L15.4674 26.6867L15.4677 26.6786C15.4699 26.6136 15.5245 26.5626 15.5894 26.5649" fill="#047857"/>
<path fill-rule="evenodd" clip-rule="evenodd" d="M15.1329 18.4023C15.1979 18.4023 15.2506 18.4551 15.2506 18.5201V21.0324C15.2506 21.0974 15.1979 21.1501 15.1329 21.1501C15.0679 21.1501 15.0152 21.0974 15.0152 21.0324V18.5201C15.0152 18.4551 15.0679 18.4023 15.1329 18.4023Z" fill="#047857"/>
<path fill-rule="evenodd" clip-rule="evenodd" d="M14.4888 14.4248C14.5296 14.3742 14.6037 14.3663 14.6543 14.4071C14.7049 14.4479 14.7128 14.522 14.672 14.5726L14.5806 14.4989C14.672 14.5726 14.672 14.5726 14.672 14.5726L14.6717 14.573L14.6713 14.5735L14.6697 14.5754L14.6644 14.5818C14.6599 14.5872 14.6533 14.5949 14.6448 14.6046C14.6278 14.6239 14.6031 14.6511 14.5714 14.6837C14.508 14.7488 14.416 14.836 14.3008 14.9249C14.0725 15.1013 13.7427 15.2924 13.358 15.3198C12.9794 15.3467 12.6446 15.2385 12.4075 15.1264C12.2884 15.0701 12.1924 15.0122 12.1258 14.968C12.0925 14.9459 12.0664 14.9272 12.0483 14.9138C12.0393 14.9071 12.0323 14.9017 12.0274 14.8978L12.0215 14.8932L12.0198 14.8918L12.0193 14.8914L12.019 14.8912C12.019 14.8911 12.019 14.8911 12.0935 14.8L12.019 14.8912C11.9687 14.85 11.9613 14.7757 12.0024 14.7254C12.0436 14.6752 12.1177 14.6677 12.168 14.7089L12.1687 14.7094L12.1725 14.7124C12.176 14.7151 12.1815 14.7194 12.189 14.7249C12.2039 14.736 12.2264 14.7523 12.2559 14.7718C12.3149 14.8109 12.401 14.8629 12.5081 14.9135C12.7231 15.0151 13.0164 15.108 13.3413 15.0849C13.6603 15.0622 13.9459 14.9015 14.1569 14.7386C14.2615 14.6578 14.3452 14.5785 14.4027 14.5195C14.4313 14.49 14.4533 14.4658 14.4679 14.4492C14.4752 14.4409 14.4806 14.4345 14.4842 14.4303L14.4879 14.4258L14.4888 14.4248ZM12.168 14.7089C12.168 14.7089 12.168 14.7089 12.168 14.7089V14.7089Z" fill="#047857"/>
<path fill-rule="evenodd" clip-rule="evenodd" d="M10.6221 15.7382C10.674 15.699 10.7478 15.7092 10.787 15.7611C11.1025 16.1783 11.2611 16.6931 11.2353 17.2153L11.281 19.0196C11.2827 19.0846 11.2313 19.1386 11.1663 19.1402C11.1013 19.1419 11.0473 19.0905 11.0456 19.0255L10.9998 17.2168C10.9997 17.2138 10.9998 17.2108 10.9999 17.2078C11.0241 16.7393 10.8822 16.2773 10.5992 15.9031C10.56 15.8512 10.5702 15.7774 10.6221 15.7382Z" fill="#047857"/>
<path fill-rule="evenodd" clip-rule="evenodd" d="M10.9261 29.5963C10.9261 29.5964 10.9261 29.5965 10.8138 29.6246L10.9261 29.5965C10.9419 29.6595 10.9036 29.7235 10.8406 29.7393C10.7785 29.7549 10.7156 29.718 10.6985 29.6567C10.6984 29.6565 10.6983 29.656 10.6981 29.6554C10.6971 29.6529 10.695 29.6482 10.6915 29.6424C10.6846 29.6309 10.6727 29.6163 10.6525 29.6047C10.6168 29.584 10.5157 29.552 10.2822 29.657C10.0467 29.7628 9.70559 30.011 9.39152 30.2687C9.07885 30.5251 8.80833 30.778 8.71446 30.8839C8.67131 30.9325 8.5969 30.9369 8.54826 30.8938C8.49963 30.8506 8.49518 30.7762 8.53833 30.7276C8.64476 30.6076 8.92678 30.3454 9.24219 30.0866C9.5562 29.8291 9.91868 29.5622 10.1857 29.4422C10.4546 29.3213 10.6425 29.3271 10.7702 29.4007C10.8317 29.4362 10.8701 29.4827 10.893 29.5207C10.9045 29.5396 10.9122 29.5567 10.9174 29.5698C10.9199 29.5763 10.9219 29.582 10.9233 29.5865C10.924 29.5888 10.9246 29.5907 10.925 29.5924L10.9257 29.5947L10.9259 29.5956L10.926 29.5961L10.9261 29.5963Z" fill="#047857"/>
<path d="M9.4726 10.0283C9.4726 10.0283 10.7737 11.1622 12.2735 9.89502L9.4726 10.0283Z" fill="#047857"/>
<path fill-rule="evenodd" clip-rule="evenodd" d="M12.3634 9.81909C12.4054 9.86876 12.3991 9.94303 12.3494 9.985C11.5684 10.6449 10.8288 10.6845 10.2827 10.5513C10.0123 10.4853 9.79191 10.3778 9.63913 10.2869C9.56261 10.2414 9.50262 10.1998 9.46134 10.1692C9.44068 10.1539 9.42467 10.1413 9.41358 10.1323C9.40803 10.1278 9.4037 10.1243 9.40063 10.1217L9.39698 10.1186L9.39587 10.1176L9.39549 10.1173L9.39535 10.1172C9.39529 10.1171 9.39524 10.1171 9.47152 10.0295L9.39524 10.1171C9.34622 10.0744 9.34112 9.99999 9.38383 9.95098C9.42651 9.90201 9.50077 9.89687 9.54978 9.93944L9.55009 9.9397L9.55209 9.9414C9.55404 9.94304 9.55721 9.94567 9.56155 9.94918C9.57025 9.9562 9.58365 9.96675 9.60151 9.97998C9.63724 10.0065 9.69062 10.0435 9.75951 10.0845C9.89756 10.1667 10.0962 10.2634 10.3385 10.3225C10.8179 10.4395 11.4788 10.4124 12.1975 9.80515C12.2472 9.76319 12.3214 9.76943 12.3634 9.81909Z" fill="#047857"/>
<path d="M7.57056 12.2299C7.57056 12.2299 8.13837 12.931 8.87169 12.0967L7.57056 12.2299Z" fill="#047857"/>
<path fill-rule="evenodd" clip-rule="evenodd" d="M8.9494 12.0083C8.99824 12.0512 9.00303 12.1256 8.96011 12.1745C8.76655 12.3947 8.57679 12.5216 8.39591 12.5813C8.21394 12.6414 8.04921 12.6306 7.9119 12.5889C7.77615 12.5476 7.66886 12.4768 7.59638 12.4178C7.55988 12.388 7.53141 12.3607 7.51174 12.3403C7.50189 12.3301 7.49418 12.3216 7.48871 12.3154C7.48598 12.3123 7.4838 12.3098 7.48219 12.3078L7.4802 12.3055L7.47952 12.3046L7.47927 12.3043L7.47916 12.3042C7.47911 12.3041 7.47907 12.3041 7.57055 12.23L7.47907 12.3041C7.43814 12.2536 7.44593 12.1794 7.49645 12.1385C7.54686 12.0977 7.62076 12.1053 7.66175 12.1555L7.66221 12.1561L7.6655 12.1599C7.66871 12.1635 7.67391 12.1693 7.68102 12.1767C7.69526 12.1914 7.71689 12.2123 7.74507 12.2352C7.80198 12.2816 7.88247 12.3339 7.98034 12.3636C8.07665 12.3928 8.19137 12.4009 8.32212 12.3577C8.45395 12.3142 8.61015 12.216 8.78326 12.019C8.82618 11.9702 8.90057 11.9654 8.9494 12.0083Z" fill="#047857"/>
<path d="M6.9705 13.1975C6.9705 13.1975 7.30406 14.0649 6.23633 13.9614L6.9705 13.1975Z" fill="#047857"/>
<path fill-rule="evenodd" clip-rule="evenodd" d="M6.92824 13.0876C6.98893 13.0643 7.05704 13.0945 7.08038 13.1552L6.97049 13.1975C7.08038 13.1552 7.0804 13.1553 7.08042 13.1553L7.08048 13.1555L7.08061 13.1558L7.08096 13.1567L7.08199 13.1596C7.08283 13.1618 7.08394 13.1649 7.08527 13.1688C7.08794 13.1765 7.09151 13.1873 7.09553 13.2008C7.10355 13.2276 7.11352 13.2653 7.12173 13.3102C7.13785 13.3982 7.1487 13.5219 7.11814 13.6463C7.08665 13.7745 7.01089 13.9031 6.85913 13.9883C6.71147 14.0712 6.50504 14.1057 6.22496 14.0785C6.16025 14.0722 6.11287 14.0147 6.11915 13.95C6.12543 13.8853 6.18297 13.8379 6.24769 13.8442C6.50147 13.8688 6.65375 13.8336 6.74384 13.783C6.82984 13.7347 6.87089 13.6659 6.88948 13.5902C6.90899 13.5107 6.90319 13.4239 6.89013 13.3526C6.88375 13.3177 6.87601 13.2885 6.86996 13.2683C6.86694 13.2582 6.86439 13.2505 6.86269 13.2456L6.86084 13.2404L6.86061 13.2397C6.8606 13.2397 6.86059 13.2397 6.86057 13.2396M6.92824 13.0876C6.86759 13.1109 6.83731 13.179 6.86057 13.2396L6.92824 13.0876Z" fill="#047857"/>
<path d="M6.30334 14.8323C6.30334 14.8323 6.97046 15.002 6.70311 15.6335L6.30334 14.8323Z" fill="#047857"/>
<path fill-rule="evenodd" clip-rule="evenodd" d="M6.18927 14.8032C6.2053 14.7402 6.26938 14.7021 6.33239 14.7181L6.30336 14.8322C6.33239 14.7181 6.33245 14.7182 6.33251 14.7182L6.33264 14.7182L6.33296 14.7183L6.33377 14.7185L6.33611 14.7191L6.34356 14.7212C6.34971 14.723 6.35818 14.7256 6.36855 14.729C6.38926 14.7359 6.41785 14.7463 6.45099 14.7609C6.51654 14.7899 6.60368 14.837 6.68274 14.909C6.76242 14.9815 6.83629 15.0816 6.86797 15.2146C6.8998 15.3482 6.8862 15.503 6.81153 15.6794C6.78618 15.7392 6.7171 15.7672 6.65723 15.7419C6.59735 15.7165 6.56937 15.6474 6.59471 15.5876C6.65372 15.4482 6.657 15.345 6.63893 15.2691C6.62073 15.1927 6.57794 15.132 6.52426 15.0831C6.46997 15.0337 6.40704 14.9989 6.35585 14.9763C6.33063 14.9652 6.30919 14.9574 6.29446 14.9525C6.28711 14.9501 6.28151 14.9484 6.27801 14.9474L6.27442 14.9464L6.27392 14.9462C6.27391 14.9462 6.27394 14.9462 6.27401 14.9462L6.27414 14.9463L6.27423 14.9463C6.21128 14.9302 6.17325 14.8662 6.18927 14.8032Z" fill="#047857"/>
<path d="M13.1426 10.6623C13.1426 10.6623 13.1426 10.9959 13.8097 10.9959C14.4768 10.9959 14.3105 10.2617 14.3105 10.2617" fill="#047857"/>
<path fill-rule="evenodd" clip-rule="evenodd" d="M14.2845 10.1469C14.3479 10.1325 14.411 10.1722 14.4253 10.2357L14.3105 10.2617C14.4253 10.2357 14.4253 10.2357 14.4253 10.2358L14.4254 10.2359L14.4254 10.2362L14.4256 10.237L14.4261 10.2394L14.4277 10.2472C14.429 10.2538 14.4307 10.263 14.4326 10.2744C14.4363 10.2972 14.4406 10.3293 14.4435 10.3676C14.4492 10.4432 14.4495 10.5477 14.4251 10.6549C14.4006 10.7624 14.3496 10.8794 14.2472 10.9695C14.1434 11.0609 13.9991 11.1136 13.8097 11.1136C13.458 11.1136 13.256 11.0256 13.1428 10.9123C13.0867 10.8562 13.0569 10.7982 13.0414 10.7516C13.0337 10.7286 13.0296 10.7086 13.0274 10.6933C13.0263 10.6856 13.0257 10.6791 13.0253 10.6739C13.0252 10.6713 13.025 10.669 13.025 10.667L13.0249 10.6644L13.0249 10.6633L13.0249 10.6628L13.0249 10.6625C13.0249 10.6624 13.0249 10.6623 13.1401 10.6623H13.0249C13.0249 10.5973 13.0776 10.5446 13.1426 10.5446C13.2064 10.5446 13.2583 10.5953 13.2603 10.6586C13.2603 10.6589 13.2604 10.6594 13.2605 10.66C13.2609 10.6629 13.262 10.669 13.2647 10.6772C13.2701 10.6932 13.2819 10.7185 13.3093 10.7458C13.3628 10.7993 13.4943 10.8781 13.8097 10.8781C13.9539 10.8781 14.0391 10.839 14.0917 10.7927C14.1457 10.7452 14.1782 10.6787 14.1955 10.6026C14.2129 10.5263 14.2133 10.4473 14.2087 10.3852C14.2064 10.3547 14.2029 10.3293 14.2001 10.312C14.1987 10.3034 14.1975 10.2968 14.1967 10.2926L14.1958 10.2882L14.1957 10.2877C14.1957 10.2877 14.1957 10.2876 14.1957 10.2876M14.2845 10.1469C14.2211 10.1612 14.1814 10.2242 14.1957 10.2876L14.2845 10.1469Z" fill="#047857"/>
<path d="M16.4451 9.02844C16.4451 9.02844 16.3449 9.76261 17.1793 9.99602C18.0136 10.2294 18.5135 9.4282 18.5135 9.4282" fill="#047857"/>
<path fill-rule="evenodd" clip-rule="evenodd" d="M16.5617 9.04429C16.5617 9.04429 16.5617 9.04429 16.5617 9.04429L16.5617 9.04429L16.5618 9.04419L16.5618 9.04402L16.5618 9.04388C16.5618 9.04387 16.5618 9.04403 16.5617 9.04436L16.5613 9.04823C16.561 9.05208 16.5604 9.05839 16.56 9.06686C16.5591 9.08383 16.5585 9.10929 16.5601 9.14095C16.5633 9.20457 16.5752 9.29123 16.6096 9.38367C16.6765 9.56311 16.8321 9.77671 17.211 9.88271C17.5823 9.9866 17.8787 9.86224 18.0888 9.70536C18.1943 9.6266 18.2764 9.54065 18.3321 9.47419C18.3599 9.44108 18.3808 9.41316 18.3945 9.39389C18.4014 9.38426 18.4065 9.37682 18.4097 9.37201L18.4131 9.36684L18.4136 9.36595L18.4137 9.36587C18.4481 9.31077 18.5207 9.29399 18.5758 9.32839C18.631 9.36281 18.6478 9.43543 18.6134 9.49059L18.5135 9.42827C18.6134 9.49059 18.6133 9.49063 18.6133 9.49068L18.6132 9.4908L18.6131 9.49108L18.6126 9.49186L18.611 9.49428L18.6057 9.50241C18.6012 9.50922 18.5947 9.51877 18.5862 9.5306C18.5694 9.55423 18.5447 9.58708 18.5126 9.62544C18.4485 9.70191 18.3534 9.80167 18.2297 9.89405C17.9813 10.0794 17.6105 10.239 17.1475 10.1095C16.6921 9.98205 16.4806 9.71186 16.389 9.46587C16.3442 9.34558 16.329 9.23411 16.3249 9.15278C16.3228 9.11196 16.3236 9.07825 16.3249 9.05416C16.3255 9.0421 16.3263 9.0324 16.327 9.02538C16.3273 9.02187 16.3277 9.01903 16.3279 9.01688L16.3282 9.0142L16.3284 9.01326L16.3284 9.01289L16.3284 9.01273C16.3284 9.01266 16.3284 9.01259 16.4448 9.02846L16.3284 9.01259C16.3372 8.94817 16.3966 8.90307 16.461 8.91186C16.5254 8.92064 16.5705 8.97992 16.5617 9.04429C16.5617 9.04429 16.5617 9.04429 16.5617 9.04429Z" fill="#047857"/>
<path d="M18.4167 12.9972C18.4167 12.9972 17.983 13.3647 18.3166 13.7984C18.6501 14.2321 19.0499 14.0649 19.0499 14.0649" fill="#047857"/>
<path fill-rule="evenodd" clip-rule="evenodd" d="M18.4932 13.0868C18.4931 13.0868 18.4931 13.0869 18.493 13.0869L18.4909 13.0888C18.4888 13.0907 18.4853 13.0939 18.4808 13.0983C18.4718 13.1071 18.4586 13.1206 18.4435 13.1382C18.4129 13.1738 18.3761 13.224 18.3487 13.2841C18.2962 13.3989 18.2749 13.5511 18.4099 13.7267C18.5557 13.9163 18.7084 13.9674 18.8186 13.9771C18.8757 13.9821 18.9244 13.9761 18.9582 13.9691C18.9751 13.9656 18.988 13.9618 18.996 13.9592C19.0001 13.9579 19.0029 13.9569 19.0043 13.9564L19.0054 13.956C19.0652 13.9316 19.1336 13.9599 19.1585 14.0195C19.1836 14.0795 19.1553 14.1485 19.0953 14.1736L19.0499 14.065C19.0953 14.1736 19.0953 14.1736 19.0952 14.1736L19.0951 14.1737L19.0948 14.1738L19.094 14.1741L19.0921 14.1749L19.0864 14.1771C19.0818 14.1788 19.0757 14.181 19.0681 14.1834C19.053 14.1882 19.0321 14.1942 19.0063 14.1996C18.9548 14.2103 18.8826 14.219 18.7981 14.2116C18.6251 14.1965 18.411 14.1144 18.2233 13.8702C18.0247 13.6121 18.0535 13.3637 18.1345 13.1863C18.1738 13.1003 18.2246 13.0316 18.2649 12.9847C18.2852 12.9611 18.3033 12.9425 18.3167 12.9295C18.3234 12.923 18.3289 12.9178 18.333 12.9141L18.338 12.9097L18.3396 12.9083L18.3402 12.9078L18.3405 12.9076L18.3406 12.9075C18.3406 12.9075 18.3406 12.9074 18.4168 12.9972L18.3406 12.9074C18.3902 12.8654 18.4645 12.8715 18.5066 12.9211" fill="#047857"/>
<path d="M19.3504 15.2999C19.3504 15.2999 18.8191 14.8127 18.3828 15.4697C17.9465 16.1266 18.7503 16.6044 18.7503 16.6044" fill="#047857"/>
<path fill-rule="evenodd" clip-rule="evenodd" d="M19.4298 15.213C19.4299 15.213 19.4299 15.2131 19.3531 15.2968L19.4299 15.2131C19.4778 15.257 19.4811 15.3315 19.4371 15.3794C19.3933 15.4272 19.3191 15.4305 19.2711 15.3869C19.271 15.3868 19.2709 15.3867 19.2708 15.3866L19.3503 15.2999C19.2708 15.3866 19.2708 15.3866 19.2709 15.3867L19.271 15.3867L19.2711 15.3868L19.2708 15.3866L19.2679 15.3841C19.2651 15.3817 19.2604 15.3778 19.2541 15.3729C19.2415 15.363 19.2224 15.349 19.1981 15.3338C19.1489 15.303 19.0818 15.2696 19.0058 15.2535C18.931 15.2377 18.8487 15.2387 18.7636 15.2744C18.6782 15.3103 18.58 15.3854 18.4809 15.5347C18.3857 15.678 18.3623 15.8041 18.3733 15.9121C18.3846 16.0225 18.433 16.1244 18.4982 16.2141C18.5633 16.3038 18.6418 16.3767 18.7053 16.4277C18.7367 16.4529 18.7638 16.4723 18.7828 16.4852C18.7922 16.4916 18.7996 16.4963 18.8044 16.4994L18.8095 16.5026L18.8105 16.5032L18.8105 16.5032C18.8664 16.5365 18.8847 16.6087 18.8515 16.6645C18.8183 16.7204 18.746 16.7388 18.6901 16.7056L18.7503 16.6044C18.6901 16.7056 18.6901 16.7055 18.69 16.7055L18.6899 16.7054L18.6897 16.7053L18.6889 16.7048L18.6865 16.7033L18.6784 16.6983C18.6716 16.694 18.6621 16.6879 18.6505 16.6799C18.6271 16.6641 18.5949 16.641 18.5578 16.6112C18.4842 16.5521 18.389 16.4644 18.3077 16.3525C18.2264 16.2406 18.1558 16.0999 18.139 15.936C18.1221 15.7696 18.1617 15.5896 18.2847 15.4045C18.4037 15.2253 18.5355 15.1149 18.6724 15.0574C18.8096 14.9997 18.942 14.9993 19.0546 15.0232C19.1659 15.0468 19.2589 15.0941 19.3229 15.1342C19.3553 15.1544 19.3811 15.1733 19.3992 15.1875C19.4083 15.1946 19.4155 15.2005 19.4207 15.2049L19.4269 15.2103L19.4288 15.212L19.4295 15.2126L19.4297 15.2129L19.4298 15.213Z" fill="#047857"/>
<path opacity="0.1" d="M9.4726 10.0283C9.4726 10.0283 10.7737 11.1622 12.2735 9.89502L9.4726 10.0283Z" fill="#047857"/>
<path opacity="0.1" d="M7.57056 12.2299C7.57056 12.2299 8.13837 12.931 8.87169 12.0967L7.57056 12.2299Z" fill="#047857"/>
<path opacity="0.1" d="M6.9705 13.1975C6.9705 13.1975 7.30406 14.0649 6.23633 13.9614L6.9705 13.1975Z" fill="#047857"/>
<path opacity="0.1" d="M6.30334 14.8323C6.30334 14.8323 6.97046 15.002 6.70311 15.6335L6.30334 14.8323Z" fill="#047857"/>
<path opacity="0.1" d="M13.1426 10.6623C13.1426 10.6623 13.1426 10.9959 13.8097 10.9959C14.4768 10.9959 14.3105 10.2617 14.3105 10.2617" fill="#047857"/>
<path opacity="0.1" d="M16.4451 9.02844C16.4451 9.02844 16.3449 9.76261 17.1793 9.99602C18.0136 10.2294 18.5135 9.4282 18.5135 9.4282" fill="#047857"/>
<path opacity="0.1" d="M18.4167 12.9972C18.4167 12.9972 17.983 13.3647 18.3166 13.7984C18.6501 14.2321 19.0499 14.0649 19.0499 14.0649" fill="#047857"/>
<path opacity="0.1" d="M19.3504 15.2999C19.3504 15.2999 18.8191 14.8127 18.3828 15.4697C17.9465 16.1266 18.7503 16.6044 18.7503 16.6044" fill="#047857"/>
<path d="M19.6514 11.9903C19.6514 15.4952 16.8101 18.3365 13.3053 18.3365M19.6514 11.9903C19.6514 8.48543 16.8101 5.64417 13.3053 5.64417M19.6514 11.9903H6.95911M13.3053 18.3365C9.80038 18.3365 6.95911 15.4952 6.95911 11.9903M13.3053 18.3365C14.4736 18.3365 15.4206 15.4952 15.4206 11.9903C15.4206 8.48543 14.4736 5.64417 13.3053 5.64417M13.3053 18.3365C12.137 18.3365 11.1899 15.4952 11.1899 11.9903C11.1899 8.48543 12.137 5.64417 13.3053 5.64417M6.95911 11.9903C6.95911 8.48543 9.80038 5.64417 13.3053 5.64417" stroke="#FAFAFA" stroke-linecap="round" stroke-linejoin="round"/>
</svg>
